<svg xmlns="http://www.w3.org/2000/svg" viewBox="0 0 513.92 777.09"><defs><style>.a{fill:none;stroke:#006;stroke-miterlimit:10;}</style></defs><path class="a" d="M228.7,346.8,574.2,2H436L228.7,208.3V2L62.2,165.6V776.8H229.6l-1-204.4L433,776.8H574.2L228.7,436Zm.2,90.3c0-.8,0-1-.5-1v.5H182.6l-44.8-46.7,44.8-42.8h45.8v89.1C228.9,436.2,228.9,436.4,228.9,437.1Z" transform="translate(-61.5 -0.81)"/><line class="a" x1="166.3" y1="435.29" x2="166.5" y2="435.49"/><path class="a" d="M228.5,347.4,574,2.6H435.8L228.5,208.9V2.6L62,166.2V777.4H229.4l-1-204.4L432.8,777.4H574L228.5,436.5Zm.2,90.3c0-.8,0-1-.5-1v.5H182.4l-44.8-46.7,44.8-42.8h45.8v89.1C228.7,436.8,228.7,437,228.7,437.7Z" transform="translate(-61.5 -0.81)"/><line class="a" x1="105.7" y1="464.09" x2="105.9" y2="464.29"/><path class="a" d="M228.7,347.4,574.2,2.6H436L228.7,208.9V2.6L62.2,166.2V777.4H229.6l-1-204.4L433,777.4H574.2L228.7,436.5Zm.2,90.3c0-.8,0-1-.5-1v.5H182.6l-44.8-46.7,44.8-42.8h45.8v89.1C228.9,436.8,228.9,437,228.9,437.7Z" transform="translate(-61.5 -0.81)"/><line class="a" x1="166.3" y1="435.89" x2="166.5" y2="435.99"/><polyline class="a" points="167 346.29 124.8 389.19 167 435.99"/></svg>