<?xml version="1.0" encoding="utf-8"?>
<!-- Generator: Adobe Illustrator 24.2.0, SVG Export Plug-In . SVG Version: 6.00 Build 0)  -->
<svg version="1.1" xmlns="http://www.w3.org/2000/svg" xmlns:xlink="http://www.w3.org/1999/xlink" x="0px" y="0px"
	 viewBox="0 0 600 800" style="enable-background:new 0 0 600 800;" xml:space="preserve">
<style type="text/css">
	.st0{fill:#0000FF;stroke:#0000FF;stroke-miterlimit:10;}
	.st1{fill:none;stroke:#000066;stroke-miterlimit:10;}
	.st2{fill:#000066;stroke:#000066;stroke-miterlimit:10;}
</style>
<g id="Warstwa_4">
	<g>
		<g>
			<g id="Warstwa_1_5_">
				<path class="st0" d="M228.9,437.1c0-0.8,0-1-0.5-1v0.5h-45.8l-44.8-46.7l44.8-42.8h45.8v89.1
					C228.9,436.2,228.9,436.4,228.9,437.1z M228.7,346.8L574.2,2H436L228.7,208.3V2L62.2,165.6v611.2h167.4l-1-204.4l204.4,204.4
					h141.2L228.7,436V346.8z"/>
				<line class="st0" x1="227.8" y1="436.1" x2="228" y2="436.3"/>
				<path class="st0" d="M228.7,437.7c0-0.8,0-1-0.5-1v0.5h-45.8l-44.8-46.7l44.8-42.8h45.8v89.1C228.7,436.8,228.7,437,228.7,437.7
					z M228.5,347.4L574,2.6H435.8L228.5,208.9V2.6L62,166.2v611.2h167.4l-1-204.4l204.4,204.4H574L228.5,436.5V347.4z"/>
				<line class="st0" x1="167.2" y1="464.9" x2="167.4" y2="465.1"/>
			</g>
			<g id="Warstwa_2_5_">
				<path class="st0" d="M228.9,437.7c0-0.8,0-1-0.5-1v0.5h-45.8l-44.8-46.7l44.8-42.8h45.8v89.1C228.9,436.8,228.9,437,228.9,437.7
					z M228.7,347.4L574.2,2.6H436L228.7,208.9V2.6L62.2,166.2v611.2h167.4l-1-204.4l204.4,204.4h141.2L228.7,436.5V347.4z"/>
				<line class="st0" x1="227.8" y1="436.7" x2="228" y2="436.8"/>
			</g>
			<polyline class="st0" points="228.5,347.1 186.3,390 228.5,436.8 			"/>
		</g>
		<g>
			<g>
				<path class="st0" d="M228.7,437.4c0-0.8,0-1-0.5-1v0.5h-45.8l-44.8-46.7l44.8-42.8h45.8v89.1
					C228.7,436.5,228.7,436.6,228.7,437.4z M228.4,347.1L574,2.3H435.7L228.4,208.6V2.3L61.9,165.9v611.2h167.4l-1-204.4
					l204.4,204.4H574L228.4,436.3V347.1z"/>
				<line class="st0" x1="227.5" y1="436.4" x2="227.7" y2="436.5"/>
				<path class="st0" d="M228.5,438c0-0.8,0-1-0.5-1v0.5h-45.8l-44.8-46.7l44.8-42.8H228V437C228.5,437,228.5,437.2,228.5,438z
					 M228.2,347.7L573.8,2.9H435.5L228.2,209.1V2.9L61.7,166.5v611.2h167.4l-1-204.4l204.4,204.4h141.2L228.2,436.7V347.7z"/>
				<line class="st0" x1="167" y1="465.2" x2="167.1" y2="465.4"/>
			</g>
			<g>
				<path class="st0" d="M228.7,438c0-0.8,0-1-0.5-1v0.5h-45.8l-44.8-46.7l44.8-42.8h45.8V437C228.7,437,228.7,437.2,228.7,438z
					 M228.4,347.7L574,2.9H435.7L228.4,209.1V2.9L61.9,166.5v611.2h167.4l-1-204.4l204.4,204.4H574L228.4,436.7V347.7z"/>
				<line class="st0" x1="227.5" y1="436.9" x2="227.7" y2="437"/>
			</g>
			<polyline class="st0" points="228.2,347.4 186,390.3 228.2,437 			"/>
		</g>
		<g>
			<g>
				<path class="st0" d="M228.4,437.7c0-0.8,0-1-0.5-1v0.5h-45.8l-44.8-46.7l44.8-42.8h45.8v89.1
					C228.4,436.7,228.4,436.9,228.4,437.7z M228.1,347.4L573.7,2.6H435.5L228.1,208.8V2.6L61.6,166.2v611.2h167.4l-1-204.4
					l204.4,204.4h141.2L228.1,436.5V347.4z"/>
				<line class="st0" x1="227.2" y1="436.6" x2="227.4" y2="436.8"/>
				<path class="st0" d="M228.2,438.3c0-0.8,0-1-0.5-1v0.5H182l-44.8-46.7l44.8-42.8h45.8v89.1C228.2,437.3,228.2,437.5,228.2,438.3
					z M227.9,347.9L573.5,3.1H435.3L227.9,209.4V3.1L61.4,166.8v611.2h167.4l-1-204.4l204.4,204.4h141.2L227.9,437V347.9z"/>
				<line class="st0" x1="166.7" y1="465.4" x2="166.9" y2="465.6"/>
			</g>
			<g>
				<path class="st0" d="M228.4,438.3c0-0.8,0-1-0.5-1v0.5h-45.8l-44.8-46.7l44.8-42.8h45.8v89.1
					C228.4,437.3,228.4,437.5,228.4,438.3z M228.1,347.9L573.7,3.1H435.5L228.1,209.4V3.1L61.6,166.8v611.2h167.4l-1-204.4
					l204.4,204.4h141.2L228.1,437V347.9z"/>
				<line class="st0" x1="227.2" y1="437.2" x2="227.4" y2="437.3"/>
			</g>
			<polyline class="st0" points="227.9,347.7 185.7,390.5 227.9,437.3 			"/>
		</g>
		<g>
			<g>
				<path class="st0" d="M228.1,438c0-0.8,0-1-0.5-1v0.5h-45.8l-44.8-46.7l44.8-42.8h45.8V437C228.1,437,228.1,437.2,228.1,438z
					 M227.8,347.6L573.4,2.8H435.2L227.8,209.1V2.8L61.4,166.5v611.2h167.4l-1-204.4l204.4,204.4h141.2L227.8,436.8V347.6z"/>
				<line class="st0" x1="227" y1="436.9" x2="227.2" y2="437.1"/>
				<path class="st0" d="M227.9,438.6c0-0.8,0-1-0.5-1v0.5h-45.8l-44.8-46.7l44.8-42.8h45.8v89.1
					C227.9,437.6,227.9,437.8,227.9,438.6z M227.6,348.2L573.2,3.4H435L227.6,209.7V3.4L61.2,167.1v611.2h167.4l-1-204.4
					l204.4,204.4h141.2L227.6,437.3V348.2z"/>
				<line class="st0" x1="166.4" y1="465.7" x2="166.6" y2="465.9"/>
			</g>
			<g>
				<path class="st0" d="M228.1,438.6c0-0.8,0-1-0.5-1v0.5h-45.8l-44.8-46.7l44.8-42.8h45.8v89.1
					C228.1,437.6,228.1,437.8,228.1,438.6z M227.8,348.2L573.4,3.4H435.2L227.8,209.7V3.4L61.4,167.1v611.2h167.4l-1-204.4
					l204.4,204.4h141.2L227.8,437.3V348.2z"/>
				<line class="st0" x1="227" y1="437.5" x2="227.2" y2="437.6"/>
			</g>
			<polyline class="st0" points="227.6,347.9 185.4,390.8 227.6,437.6 			"/>
		</g>
		<g>
			<g>
				<path class="st0" d="M227.9,438.3c0-0.8,0-1-0.5-1v0.5h-45.8L136.8,391l44.8-42.8h45.8v89.1
					C227.9,437.3,227.9,437.5,227.9,438.3z M227.6,347.9L573.1,3.1H434.9L227.6,209.4V3.1L61.1,166.8V778h167.4l-1-204.4L432,778
					h141.2L227.6,437.1V347.9z"/>
				<line class="st0" x1="226.7" y1="437.2" x2="226.9" y2="437.4"/>
				<path class="st0" d="M227.7,438.8c0-0.8,0-1-0.5-1v0.5h-45.8l-44.8-46.7l44.8-42.8h45.8v89.1
					C227.7,437.9,227.7,438.1,227.7,438.8z M227.4,348.5L573,3.7H434.7L227.4,210V3.7L60.9,167.3v611.2h167.4l-1-204.4l204.4,204.4
					H573L227.4,437.6V348.5z"/>
				<line class="st0" x1="166.1" y1="466" x2="166.3" y2="466.2"/>
			</g>
			<g>
				<path class="st0" d="M227.9,438.8c0-0.8,0-1-0.5-1v0.5h-45.8l-44.8-46.7l44.8-42.8h45.8v89.1
					C227.9,437.9,227.9,438.1,227.9,438.8z M227.6,348.5L573.1,3.7H434.9L227.6,210V3.7L61.1,167.3v611.2h167.4l-1-204.4L432,778.5
					h141.2L227.6,437.6V348.5z"/>
				<line class="st0" x1="226.7" y1="437.8" x2="226.9" y2="437.9"/>
			</g>
			<polyline class="st0" points="227.4,348.2 185.2,391.1 227.4,437.9 			"/>
		</g>
		<g>
			<g>
				<path class="st0" d="M227.6,438.5c0-0.8,0-1-0.5-1v0.5h-45.8l-44.8-46.7l44.8-42.8h45.8v89.1
					C227.6,437.6,227.6,437.8,227.6,438.5z M227.3,348.2L572.9,3.4H434.6L227.3,209.7V3.4L60.8,167v611.2h167.4l-1-204.4
					l204.4,204.4h141.2L227.3,437.4V348.2z"/>
				<line class="st0" x1="226.4" y1="437.5" x2="226.6" y2="437.7"/>
				<path class="st0" d="M227.4,439.1c0-0.8,0-1-0.5-1v0.5h-45.8l-44.8-46.7l44.8-42.8h45.8v89.1
					C227.4,438.2,227.4,438.3,227.4,439.1z M227.1,348.8L572.7,4H434.4L227.1,210.3V4L60.6,167.6v611.2h167.4l-1-204.4l204.4,204.4
					h141.2L227.1,437.9V348.8z"/>
				<line class="st0" x1="165.9" y1="466.3" x2="166.1" y2="466.5"/>
			</g>
			<g>
				<path class="st0" d="M227.6,439.1c0-0.8,0-1-0.5-1v0.5h-45.8l-44.8-46.7l44.8-42.8h45.8v89.1
					C227.6,438.2,227.6,438.3,227.6,439.1z M227.3,348.8L572.9,4H434.6L227.3,210.3V4L60.8,167.6v611.2h167.4l-1-204.4l204.4,204.4
					h141.2L227.3,437.9V348.8z"/>
				<line class="st0" x1="226.4" y1="438.1" x2="226.6" y2="438.2"/>
			</g>
			<polyline class="st0" points="227.1,348.5 184.9,391.4 227.1,438.2 			"/>
		</g>
		<g>
			<g>
				<path class="st0" d="M227.3,438.8c0-0.8,0-1-0.5-1v0.5h-45.8l-44.8-46.7l44.8-42.8h45.8v89.1C227.3,437.8,227.3,438,227.3,438.8
					z M227,348.5L572.6,3.7H434.4L227,210V3.7L60.6,167.3v611.2H228l-1-204.4l204.4,204.4h141.2L227,437.7V348.5z"/>
				<line class="st0" x1="226.1" y1="437.8" x2="226.3" y2="437.9"/>
				<path class="st0" d="M227.1,439.4c0-0.8,0-1-0.5-1v0.5h-45.8l-44.8-46.7l44.8-42.8h45.8v89.1
					C227.1,438.4,227.1,438.6,227.1,439.4z M226.8,349.1L572.4,4.3H434.2L226.8,210.5V4.3L60.4,167.9v611.2h167.4l-1-204.4
					l204.4,204.4h141.2L226.8,438.1V349.1z"/>
				<line class="st0" x1="165.6" y1="466.6" x2="165.8" y2="466.8"/>
			</g>
			<g>
				<path class="st0" d="M227.3,439.4c0-0.8,0-1-0.5-1v0.5h-45.8l-44.8-46.7l44.8-42.8h45.8v89.1
					C227.3,438.4,227.3,438.6,227.3,439.4z M227,349.1L572.6,4.3H434.4L227,210.5V4.3L60.6,167.9v611.2H228l-1-204.4l204.4,204.4
					h141.2L227,438.1V349.1z"/>
				<line class="st0" x1="226.1" y1="438.3" x2="226.3" y2="438.4"/>
			</g>
			<polyline class="st0" points="226.8,348.8 184.6,391.7 226.8,438.4 			"/>
		</g>
		<g>
			<g>
				<path class="st0" d="M227,439.1c0-0.8,0-1-0.5-1v0.5h-45.8L136,391.9l44.8-42.8h45.8v89.1C227,438.1,227,438.3,227,439.1z
					 M226.7,348.8L572.3,4H434.1L226.7,210.2V4L60.3,167.6v611.2h167.4l-1-204.4l204.4,204.4h141.2L226.7,437.9V348.8z"/>
				<line class="st0" x1="225.9" y1="438" x2="226.1" y2="438.2"/>
				<path class="st0" d="M226.8,439.7c0-0.8,0-1-0.5-1v0.5h-45.8l-44.8-46.7l44.8-42.8h45.8v89.1
					C226.8,438.7,226.8,438.9,226.8,439.7z M226.6,349.3L572.1,4.5H433.9L226.6,210.8V4.5L60.1,168.2v611.2h167.4l-1-204.4
					L431,779.3h141.2L226.6,438.4V349.3z"/>
				<line class="st0" x1="165.3" y1="466.8" x2="165.5" y2="467"/>
			</g>
			<g>
				<path class="st0" d="M227,439.7c0-0.8,0-1-0.5-1v0.5h-45.8L136,392.5l44.8-42.8h45.8v89.1C227,438.7,227,438.9,227,439.7z
					 M226.7,349.3L572.3,4.5H434.1L226.7,210.8V4.5L60.3,168.2v611.2h167.4l-1-204.4l204.4,204.4h141.2L226.7,438.4V349.3z"/>
				<line class="st0" x1="225.9" y1="438.6" x2="226.1" y2="438.7"/>
			</g>
			<polyline class="st0" points="226.6,349.1 184.4,391.9 226.6,438.7 			"/>
		</g>
		<g>
			<g>
				<path class="st0" d="M226.8,439.4c0-0.8,0-1-0.5-1v0.5h-45.8l-44.8-46.7l44.8-42.8h45.8v89.1
					C226.8,438.4,226.8,438.6,226.8,439.4z M226.5,349L572.1,4.2H433.8L226.5,210.5V4.2L60,167.9v611.2h167.4l-1-204.4l204.4,204.4
					h141.2L226.5,438.2V349z"/>
				<line class="st0" x1="225.6" y1="438.3" x2="225.8" y2="438.5"/>
				<path class="st0" d="M226.6,440c0-0.8,0-1-0.5-1v0.5h-45.8l-44.8-46.7l44.8-42.8h45.8V439C226.6,439,226.6,439.2,226.6,440z
					 M226.3,349.6L571.9,4.8H433.6L226.3,211.1V4.8L59.8,168.5v611.2h167.4l-1-204.4l204.4,204.4h141.2L226.3,438.7V349.6z"/>
				<line class="st0" x1="165" y1="467.1" x2="165.2" y2="467.3"/>
			</g>
			<g>
				<path class="st0" d="M226.8,440c0-0.8,0-1-0.5-1v0.5h-45.8l-44.8-46.7l44.8-42.8h45.8V439C226.8,439,226.8,439.2,226.8,440z
					 M226.5,349.6L572.1,4.8H433.8L226.5,211.1V4.8L60,168.5v611.2h167.4l-1-204.4l204.4,204.4h141.2L226.5,438.7V349.6z"/>
				<line class="st0" x1="225.6" y1="438.9" x2="225.8" y2="439"/>
			</g>
			<polyline class="st0" points="226.3,349.3 184.1,392.2 226.3,439 			"/>
		</g>
		<g>
			<g>
				<path class="st0" d="M226.5,439.7c0-0.8,0-1-0.5-1v0.5h-45.8l-44.8-46.7l44.8-42.8H226v89.1
					C226.5,438.7,226.5,438.9,226.5,439.7z M226.2,349.3L571.8,4.5H433.6L226.2,210.8V4.5L59.7,168.2v611.2h167.4l-1-204.4
					l204.4,204.4h141.2L226.2,438.5V349.3z"/>
				<line class="st0" x1="225.3" y1="438.6" x2="225.5" y2="438.8"/>
				<path class="st0" d="M226.3,440.2c0-0.8,0-1-0.5-1v0.5h-45.8L135.3,393l44.8-42.8h45.8v89.1
					C226.3,439.3,226.3,439.5,226.3,440.2z M226,349.9L571.6,5.1H433.4L226,211.4V5.1L59.5,168.7v611.2H227l-1-204.4l204.4,204.4
					h141.2L226,439V349.9z"/>
				<line class="st0" x1="164.8" y1="467.4" x2="165" y2="467.6"/>
			</g>
			<g>
				<path class="st0" d="M226.5,440.2c0-0.8,0-1-0.5-1v0.5h-45.8L135.5,393l44.8-42.8H226v89.1C226.5,439.3,226.5,439.5,226.5,440.2
					z M226.2,349.9L571.8,5.1H433.6L226.2,211.4V5.1L59.7,168.7v611.2h167.4l-1-204.4l204.4,204.4h141.2L226.2,439V349.9z"/>
				<line class="st0" x1="225.3" y1="439.2" x2="225.5" y2="439.3"/>
			</g>
			<polyline class="st0" points="226,349.6 183.8,392.5 226,439.3 			"/>
		</g>
		<g>
			<g>
				<path class="st0" d="M226.2,439.9c0-0.8,0-1-0.5-1v0.5H180l-44.8-46.7l44.8-42.8h45.8V439C226.2,439,226.2,439.2,226.2,439.9z
					 M225.9,349.6L571.5,4.8H433.3L225.9,211.1V4.8L59.5,168.4v611.2h167.4l-1-204.4l204.4,204.4h141.2L225.9,438.8V349.6z"/>
				<line class="st0" x1="225.1" y1="438.9" x2="225.2" y2="439.1"/>
				<path class="st0" d="M226,440.5c0-0.8,0-1-0.5-1v0.5h-45.8L135,393.3l44.8-42.8h45.8v89.1C226,439.5,226,439.7,226,440.5z
					 M225.7,350.2L571.3,5.4H433.1L225.7,211.7V5.4L59.3,169v611.2h167.4l-1-204.4l204.4,204.4h141.2L225.7,439.3V350.2z"/>
				<line class="st0" x1="164.5" y1="467.7" x2="164.7" y2="467.9"/>
			</g>
			<g>
				<path class="st0" d="M226.2,440.5c0-0.8,0-1-0.5-1v0.5H180l-44.8-46.7l44.8-42.8h45.8v89.1C226.2,439.5,226.2,439.7,226.2,440.5
					z M225.9,350.2L571.5,5.4H433.3L225.9,211.7V5.4L59.5,169v611.2h167.4l-1-204.4l204.4,204.4h141.2L225.9,439.3V350.2z"/>
				<line class="st0" x1="225.1" y1="439.5" x2="225.2" y2="439.5"/>
			</g>
			<polyline class="st0" points="225.7,349.9 183.5,392.8 225.7,439.5 			"/>
		</g>
		<g>
			<g>
				<path class="st0" d="M225.9,440.2c0-0.8,0-1-0.5-1v0.5h-45.8L134.9,393l44.8-42.8h45.8v89.1
					C225.9,439.2,225.9,439.4,225.9,440.2z M225.7,349.9L571.2,5.1H433L225.7,211.4V5.1L59.2,168.7V780h167.4l-1-204.4L430.1,780
					h141.2L225.7,439.1V349.9z"/>
				<line class="st0" x1="224.8" y1="439.1" x2="225" y2="439.3"/>
				<path class="st0" d="M225.8,440.8c0-0.8,0-1-0.5-1v0.5h-45.8l-44.8-46.7l44.8-42.8h45.8v89.1C225.8,439.8,225.8,440,225.8,440.8
					z M225.5,350.5L571,5.7H432.8L225.5,211.9V5.7L59,169.3v611.2h167.4l-1-204.4l204.4,204.4H571L225.5,439.5V350.5z"/>
				<line class="st0" x1="164.2" y1="468" x2="164.4" y2="468.2"/>
			</g>
			<g>
				<path class="st0" d="M225.9,440.8c0-0.8,0-1-0.5-1v0.5h-45.8l-44.8-46.7l44.8-42.8h45.8v89.1C225.9,439.8,225.9,440,225.9,440.8
					z M225.7,350.5L571.2,5.7H433L225.7,211.9V5.7L59.2,169.3v611.2h167.4l-1-204.4l204.4,204.4h141.2L225.7,439.5V350.5z"/>
				<line class="st0" x1="224.8" y1="439.7" x2="225" y2="439.8"/>
			</g>
			<polyline class="st0" points="225.5,350.2 183.3,393.1 225.5,439.8 			"/>
		</g>
		<g>
			<g>
				<path class="st0" d="M225.7,440.5c0-0.8,0-1-0.5-1v0.5h-45.8l-44.8-46.7l44.8-42.8h45.8v89.1
					C225.7,439.5,225.7,439.7,225.7,440.5z M225.4,350.2L571,5.4H432.7L225.4,211.6V5.4L58.9,169v611.2h167.4l-1-204.4l204.4,204.4
					H571L225.4,439.3V350.2z"/>
				<line class="st0" x1="224.5" y1="439.4" x2="224.7" y2="439.6"/>
				<path class="st0" d="M225.5,441.1c0-0.8,0-1-0.5-1v0.5h-45.8l-44.8-46.7l44.8-42.8H225v89.1
					C225.5,440.1,225.5,440.3,225.5,441.1z M225.2,350.7L570.8,5.9H432.5L225.2,212.2V5.9L58.7,169.6v611.2h167.4l-1-204.4
					l204.4,204.4h141.2L225.2,439.8V350.7z"/>
				<line class="st0" x1="164" y1="468.2" x2="164.2" y2="468.4"/>
			</g>
			<g>
				<path class="st0" d="M225.7,441.1c0-0.8,0-1-0.5-1v0.5h-45.8l-44.8-46.7l44.8-42.8h45.8v89.1
					C225.7,440.1,225.7,440.3,225.7,441.1z M225.4,350.7L571,5.9H432.7L225.4,212.2V5.9L58.9,169.6v611.2h167.4l-1-204.4
					l204.4,204.4H571L225.4,439.8V350.7z"/>
				<line class="st0" x1="224.5" y1="440" x2="224.7" y2="440.1"/>
			</g>
			<polyline class="st0" points="225.2,350.5 183,393.3 225.2,440.1 			"/>
		</g>
		<g>
			<g>
				<path class="st0" d="M225.4,440.8c0-0.8,0-1-0.5-1v0.5h-45.8l-44.8-46.7l44.8-42.8h45.8v89.1C225.4,439.8,225.4,440,225.4,440.8
					z M225.1,350.4L570.7,5.6H432.5L225.1,211.9V5.6L58.6,169.3v611.2h167.4l-1-204.4l204.4,204.4h141.2L225.1,439.6V350.4z"/>
				<line class="st0" x1="224.2" y1="439.7" x2="224.4" y2="439.9"/>
				<path class="st0" d="M225.2,441.4c0-0.8,0-1-0.5-1v0.5H179l-44.8-46.7l44.8-42.8h45.8v89.1C225.2,440.4,225.2,440.6,225.2,441.4
					z M224.9,351L570.5,6.2H432.3L224.9,212.5V6.2L58.5,169.9V781h167.4l-1-204.4L429.3,781h141.2L224.9,440.1V351z"/>
				<line class="st0" x1="163.7" y1="468.5" x2="163.9" y2="468.7"/>
			</g>
			<g>
				<path class="st0" d="M225.4,441.4c0-0.8,0-1-0.5-1v0.5h-45.8l-44.8-46.7l44.8-42.8h45.8v89.1
					C225.4,440.4,225.4,440.6,225.4,441.4z M225.1,351L570.7,6.2H432.5L225.1,212.5V6.2L58.6,169.9V781h167.4l-1-204.4L429.5,781
					h141.2L225.1,440.1V351z"/>
				<line class="st0" x1="224.2" y1="440.3" x2="224.4" y2="440.4"/>
			</g>
			<polyline class="st0" points="224.9,350.7 182.7,393.6 224.9,440.4 			"/>
		</g>
		<g>
			<g>
				<path class="st0" d="M225.1,441.1c0-0.8,0-1-0.5-1v0.5h-45.8l-44.8-46.7l44.8-42.8h45.8v89.1
					C225.1,440.1,225.1,440.3,225.1,441.1z M224.8,350.7L570.4,5.9H432.2L224.8,212.2V5.9L58.4,169.6v611.2h167.4l-1-204.4
					l204.4,204.4h141.2L224.8,439.9V350.7z"/>
				<line class="st0" x1="224" y1="440" x2="224.2" y2="440.2"/>
				<path class="st0" d="M224.9,441.6c0-0.8,0-1-0.5-1v0.5h-45.8l-44.8-46.7l44.8-42.8h45.8v89.1
					C224.9,440.7,224.9,440.9,224.9,441.6z M224.6,351.3L570.2,6.5H432L224.6,212.8V6.5L58.2,170.1v611.2h167.4l-1-204.4
					l204.4,204.4h141.2L224.6,440.4V351.3z"/>
				<line class="st0" x1="163.4" y1="468.8" x2="163.6" y2="469"/>
			</g>
			<g>
				<path class="st0" d="M225.1,441.6c0-0.8,0-1-0.5-1v0.5h-45.8l-44.8-46.7l44.8-42.8h45.8v89.1
					C225.1,440.7,225.1,440.9,225.1,441.6z M224.8,351.3L570.4,6.5H432.2L224.8,212.8V6.5L58.4,170.1v611.2h167.4l-1-204.4
					l204.4,204.4h141.2L224.8,440.4V351.3z"/>
				<line class="st0" x1="224" y1="440.6" x2="224.2" y2="440.7"/>
			</g>
			<polyline class="st0" points="224.6,351 182.4,393.9 224.6,440.7 			"/>
		</g>
		<g>
			<g>
				<path class="st0" d="M224.9,441.3c0-0.8,0-1-0.5-1v0.5h-45.8l-44.8-46.7l44.8-42.8h45.8v89.1
					C224.9,440.4,224.9,440.6,224.9,441.3z M224.6,351L570.2,6.2H431.9L224.6,212.5V6.2L58.1,169.8v611.2h167.4l-1-204.4L429,781.1
					h141.2L224.6,440.2V351z"/>
				<line class="st0" x1="223.7" y1="440.3" x2="223.9" y2="440.5"/>
				<path class="st0" d="M224.7,441.9c0-0.8,0-1-0.5-1v0.5h-45.8l-44.8-46.7l44.8-42.8h45.8v89.1
					C224.7,440.9,224.7,441.1,224.7,441.9z M224.4,351.6L570,6.8H431.7L224.4,213.1V6.8L57.9,170.4v611.2h167.4l-1-204.4
					l204.4,204.4H570L224.4,440.7V351.6z"/>
				<line class="st0" x1="163.1" y1="469.1" x2="163.3" y2="469.3"/>
			</g>
			<g>
				<path class="st0" d="M224.9,441.9c0-0.8,0-1-0.5-1v0.5h-45.8l-44.8-46.7l44.8-42.8h45.8v89.1
					C224.9,440.9,224.9,441.1,224.9,441.9z M224.6,351.6L570.2,6.8H431.9L224.6,213.1V6.8L58.1,170.4v611.2h167.4l-1-204.4
					L429,781.6h141.2L224.6,440.7V351.6z"/>
				<line class="st0" x1="223.7" y1="440.8" x2="223.9" y2="440.9"/>
			</g>
			<polyline class="st0" points="224.4,351.3 182.2,394.2 224.4,440.9 			"/>
		</g>
		<g>
			<g>
				<path class="st0" d="M224.6,441.6c0-0.8,0-1-0.5-1v0.5h-45.8l-44.8-46.7l44.8-42.8h45.8v89.1
					C224.6,440.6,224.6,440.8,224.6,441.6z M224.3,351.3L569.9,6.5H431.6L224.3,212.7V6.5L57.8,170.1v611.2h167.4l-1-204.4
					l204.4,204.4h141.2L224.3,440.4V351.3z"/>
				<line class="st0" x1="223.4" y1="440.5" x2="223.6" y2="440.7"/>
				<path class="st0" d="M224.4,442.2c0-0.8,0-1-0.5-1v0.5h-45.8L133.4,395l44.8-42.8h45.8v89.1
					C224.4,441.2,224.4,441.4,224.4,442.2z M224.1,351.9L569.7,7.1H431.5L224.1,213.3V7.1L57.6,170.7v611.2h167.4l-1-204.4
					l204.4,204.4h141.2L224.1,440.9V351.9z"/>
				<line class="st0" x1="162.9" y1="469.4" x2="163.1" y2="469.6"/>
			</g>
			<g>
				<path class="st0" d="M224.6,442.2c0-0.8,0-1-0.5-1v0.5h-45.8L133.6,395l44.8-42.8h45.8v89.1
					C224.6,441.2,224.6,441.4,224.6,442.2z M224.3,351.9L569.9,7.1H431.6L224.3,213.3V7.1L57.8,170.7v611.2h167.4l-1-204.4
					l204.4,204.4h141.2L224.3,440.9V351.9z"/>
				<line class="st0" x1="223.4" y1="441.1" x2="223.6" y2="441.2"/>
			</g>
			<polyline class="st0" points="224.1,351.6 181.9,394.4 224.1,441.2 			"/>
		</g>
		<g>
			<g>
				<path class="st0" d="M224.3,441.9c0-0.8,0-1-0.5-1v0.5h-45.8l-44.8-46.7l44.8-42.8h45.8v89.1
					C224.3,440.9,224.3,441.1,224.3,441.9z M224,351.6L569.6,6.7H431.4L224,213V6.7L57.6,170.4v611.2H225l-1-204.4l204.4,204.4
					h141.2L224,440.7V351.6z"/>
				<line class="st0" x1="223.1" y1="440.8" x2="223.3" y2="441"/>
				<path class="st0" d="M224.1,442.5c0-0.8,0-1-0.5-1v0.5h-45.8l-44.8-46.7l44.8-42.8h45.8v89.1
					C224.1,441.5,224.1,441.7,224.1,442.5z M223.8,352.1L569.4,7.3H431.2L223.8,213.6V7.3L57.4,171v611.2h167.4l-1-204.4
					l204.4,204.4h141.2L223.8,441.2V352.1z"/>
				<line class="st0" x1="162.6" y1="469.6" x2="162.8" y2="469.8"/>
			</g>
			<g>
				<path class="st0" d="M224.3,442.5c0-0.8,0-1-0.5-1v0.5h-45.8l-44.8-46.7l44.8-42.8h45.8v89.1
					C224.3,441.5,224.3,441.7,224.3,442.5z M224,352.1L569.6,7.3H431.4L224,213.6V7.3L57.6,171v611.2H225l-1-204.4l204.4,204.4
					h141.2L224,441.2V352.1z"/>
				<line class="st0" x1="223.1" y1="441.4" x2="223.3" y2="441.5"/>
			</g>
			<polyline class="st0" points="223.8,351.8 181.6,394.7 223.8,441.5 			"/>
		</g>
		<g>
			<g>
				<path class="st0" d="M224,442.2c0-0.8,0-1-0.5-1v0.5h-45.8L133,395l44.8-42.8h45.8v89.1C224,441.2,224,441.4,224,442.2z
					 M223.8,351.8L569.3,7H431.1L223.8,213.3V7L57.3,170.7v611.2h167.4l-1-204.4l204.4,204.4h141.2L223.8,441V351.8z"/>
				<line class="st0" x1="222.9" y1="441.1" x2="223.1" y2="441.3"/>
				<path class="st0" d="M223.8,442.8c0-0.8,0-1-0.5-1v0.5h-45.8l-44.8-46.7l44.8-42.8h45.8v89.1C223.8,441.8,223.8,442,223.8,442.8
					z M223.6,352.4L569.1,7.6H430.9L223.6,213.9V7.6L57.1,171.3v611.2h167.4l-1-204.4L428,782.4h141.2L223.6,441.5V352.4z"/>
				<line class="st0" x1="162.3" y1="469.9" x2="162.5" y2="470.1"/>
			</g>
			<g>
				<path class="st0" d="M224,442.8c0-0.8,0-1-0.5-1v0.5h-45.8L133,395.5l44.8-42.8h45.8v89.1C224,441.8,224,442,224,442.8z
					 M223.8,352.4L569.3,7.6H431.1L223.8,213.9V7.6L57.3,171.3v611.2h167.4l-1-204.4l204.4,204.4h141.2L223.8,441.5V352.4z"/>
				<line class="st0" x1="222.9" y1="441.7" x2="223.1" y2="441.8"/>
			</g>
			<polyline class="st0" points="223.6,352.1 181.4,395 223.6,441.8 			"/>
		</g>
		<g>
			<g>
				<path class="st0" d="M223.8,442.5c0-0.8,0-1-0.5-1v0.5h-45.8l-44.8-46.7l44.8-42.8h45.8v89.1
					C223.8,441.5,223.8,441.7,223.8,442.5z M223.5,352.1L569.1,7.3H430.8L223.5,213.6V7.3L57,170.9v611.2h167.4l-1-204.4
					l204.4,204.4h141.2L223.5,441.3V352.1z"/>
				<line class="st0" x1="222.6" y1="441.4" x2="222.8" y2="441.6"/>
				<path class="st0" d="M223.6,443c0-0.8,0-1-0.5-1v0.5h-45.8l-44.8-46.7l44.8-42.8h45.8v89.1C223.6,442.1,223.6,442.3,223.6,443z
					 M223.3,352.7L568.9,7.9H430.6L223.3,214.2V7.9L56.8,171.5v611.2h167.4l-1-204.4l204.4,204.4h141.2L223.3,441.8V352.7z"/>
				<line class="st0" x1="162.1" y1="470.2" x2="162.2" y2="470.4"/>
			</g>
			<g>
				<path class="st0" d="M223.8,443c0-0.8,0-1-0.5-1v0.5h-45.8l-44.8-46.7l44.8-42.8h45.8v89.1C223.8,442.1,223.8,442.3,223.8,443z
					 M223.5,352.7L569.1,7.9H430.8L223.5,214.2V7.9L57,171.5v611.2h167.4l-1-204.4l204.4,204.4h141.2L223.5,441.8V352.7z"/>
				<line class="st0" x1="222.6" y1="442" x2="222.8" y2="442.1"/>
			</g>
			<polyline class="st0" points="223.3,352.4 181.1,395.3 223.3,442.1 			"/>
		</g>
		<g>
			<g>
				<path class="st0" d="M223.5,442.7c0-0.8,0-1-0.5-1v0.5h-45.8l-44.8-46.7l44.8-42.8H223v89.1C223.5,441.8,223.5,442,223.5,442.7z
					 M223.2,352.4L568.8,7.6H430.6L223.2,213.9V7.6L56.7,171.2v611.2h167.4l-1-204.4l204.4,204.4h141.2L223.2,441.6V352.4z"/>
				<line class="st0" x1="222.3" y1="441.7" x2="222.5" y2="441.9"/>
				<path class="st0" d="M223.3,443.3c0-0.8,0-1-0.5-1v0.5h-45.8l-44.8-46.7l44.8-42.8h45.8v89.1
					C223.3,442.3,223.3,442.5,223.3,443.3z M223,353L568.6,8.2H430.4L223,214.5V8.2L56.5,171.8V783H224l-1-204.4L427.4,783h141.2
					L223,442.1V353z"/>
				<line class="st0" x1="161.8" y1="470.5" x2="162" y2="470.7"/>
			</g>
			<g>
				<path class="st0" d="M223.5,443.3c0-0.8,0-1-0.5-1v0.5h-45.8l-44.8-46.7l44.8-42.8H223v89.1
					C223.5,442.3,223.5,442.5,223.5,443.3z M223.2,353L568.8,8.2H430.6L223.2,214.5V8.2L56.7,171.8V783h167.4l-1-204.4L427.6,783
					h141.2L223.2,442.1V353z"/>
				<line class="st0" x1="222.3" y1="442.2" x2="222.5" y2="442.3"/>
			</g>
			<polyline class="st0" points="223,352.7 180.8,395.6 223,442.3 			"/>
		</g>
		<g>
			<g>
				<path class="st0" d="M223.2,443c0-0.8,0-1-0.5-1v0.5H177l-44.8-46.7L177,353h45.8V442C223.2,442,223.2,442.2,223.2,443z
					 M222.9,352.7L568.5,7.9H430.3L222.9,214.1V7.9L56.5,171.5v611.2h167.4l-1-204.4l204.4,204.4h141.2L222.9,441.8V352.7z"/>
				<line class="st0" x1="222.1" y1="441.9" x2="222.3" y2="442.1"/>
				<path class="st0" d="M223,443.6c0-0.8,0-1-0.5-1v0.5h-45.8L132,396.4l44.8-42.8h45.8v89.1C223,442.6,223,442.8,223,443.6z
					 M222.7,353.3L568.3,8.4H430.1L222.7,214.7V8.4L56.3,172.1v611.2h167.4l-1-204.4l204.4,204.4h141.2L222.7,442.3V353.3z"/>
				<line class="st0" x1="161.5" y1="470.8" x2="161.7" y2="471"/>
			</g>
			<g>
				<path class="st0" d="M223.2,443.6c0-0.8,0-1-0.5-1v0.5H177l-44.8-46.7l44.8-42.8h45.8v89.1C223.2,442.6,223.2,442.8,223.2,443.6
					z M222.9,353.3L568.5,8.4H430.3L222.9,214.7V8.4L56.5,172.1v611.2h167.4l-1-204.4l204.4,204.4h141.2L222.9,442.3V353.3z"/>
				<line class="st0" x1="222.1" y1="442.5" x2="222.3" y2="442.6"/>
			</g>
			<polyline class="st0" points="222.7,353 180.5,395.8 222.7,442.6 			"/>
		</g>
		<g>
			<g>
				<path class="st0" d="M223,443.3c0-0.8,0-1-0.5-1v0.5h-45.8l-44.8-46.7l44.8-42.8h45.8v89.1C223,442.3,223,442.5,223,443.3z
					 M222.7,353L568.2,8.1H430L222.7,214.4V8.1L56.2,171.8V783h167.4l-1-204.4L427.1,783h141.2L222.7,442.1V353z"/>
				<line class="st0" x1="221.8" y1="442.2" x2="222" y2="442.4"/>
				<path class="st0" d="M222.8,443.9c0-0.8,0-1-0.5-1v0.5h-45.8l-44.8-46.7l44.8-42.8h45.8v89.1
					C222.8,442.9,222.8,443.1,222.8,443.9z M222.5,353.5L568.1,8.7H429.8L222.5,215V8.7L56,172.4v611.2h167.4l-1-204.4l204.4,204.4
					h141.2L222.5,442.6V353.5z"/>
				<line class="st0" x1="161.2" y1="471" x2="161.4" y2="471.2"/>
			</g>
			<g>
				<path class="st0" d="M223,443.9c0-0.8,0-1-0.5-1v0.5h-45.8l-44.8-46.7l44.8-42.8h45.8v89.1C223,442.9,223,443.1,223,443.9z
					 M222.7,353.5L568.2,8.7H430L222.7,215V8.7L56.2,172.4v611.2h167.4l-1-204.4l204.4,204.4h141.2L222.7,442.6V353.5z"/>
				<line class="st0" x1="221.8" y1="442.8" x2="222" y2="442.9"/>
			</g>
			<polyline class="st0" points="222.5,353.2 180.3,396.1 222.5,442.9 			"/>
		</g>
		<g>
			<g>
				<path class="st0" d="M222.7,443.6c0-0.8,0-1-0.5-1v0.5h-45.8l-44.8-46.7l44.8-42.8h45.8v89.1
					C222.7,442.6,222.7,442.8,222.7,443.6z M222.4,353.2L568,8.4H429.7L222.4,214.7V8.4L55.9,172.1v611.2h167.4l-1-204.4
					l204.4,204.4H568L222.4,442.4V353.2z"/>
				<line class="st0" x1="221.5" y1="442.5" x2="221.7" y2="442.7"/>
				<path class="st0" d="M222.5,444.2c0-0.8,0-1-0.5-1v0.5h-45.8l-44.8-46.7l44.8-42.8H222v89.1
					C222.5,443.2,222.5,443.4,222.5,444.2z M222.2,353.8L567.8,9H429.5L222.2,215.3V9L55.7,172.6v611.2h167.4l-1-204.4l204.4,204.4
					h141.2L222.2,442.9V353.8z"/>
				<line class="st0" x1="161" y1="471.3" x2="161.2" y2="471.5"/>
			</g>
			<g>
				<path class="st0" d="M222.7,444.2c0-0.8,0-1-0.5-1v0.5h-45.8l-44.8-46.7l44.8-42.8h45.8v89.1
					C222.7,443.2,222.7,443.4,222.7,444.2z M222.4,353.8L568,9H429.7L222.4,215.3V9L55.9,172.6v611.2h167.4l-1-204.4l204.4,204.4
					H568L222.4,442.9V353.8z"/>
				<line class="st0" x1="221.5" y1="443.1" x2="221.7" y2="443.2"/>
			</g>
			<polyline class="st0" points="222.2,353.5 180,396.4 222.2,443.2 			"/>
		</g>
		<g>
			<g>
				<path class="st0" d="M222.4,443.8c0-0.8,0-1-0.5-1v0.5h-45.8l-44.8-46.7l44.8-42.8h45.8v89.1
					C222.4,442.9,222.4,443.1,222.4,443.8z M222.1,353.5L567.7,8.7H429.5L222.1,215V8.7L55.7,172.3v611.2h167.4l-1-204.4
					l204.4,204.4h141.2L222.1,442.7V353.5z"/>
				<line class="st0" x1="221.2" y1="442.8" x2="221.4" y2="443"/>
				<path class="st0" d="M222.2,444.4c0-0.8,0-1-0.5-1v0.5H176l-44.8-46.7l44.8-42.8h45.8v89.1C222.2,443.5,222.2,443.7,222.2,444.4
					z M221.9,354.1L567.5,9.3H429.3L221.9,215.6V9.3L55.5,172.9v611.2h167.4l-1-204.4l204.4,204.4h141.2L221.9,443.2V354.1z"/>
				<line class="st0" x1="160.7" y1="471.6" x2="160.9" y2="471.8"/>
			</g>
			<g>
				<path class="st0" d="M222.4,444.4c0-0.8,0-1-0.5-1v0.5h-45.8l-44.8-46.7l44.8-42.8h45.8v89.1
					C222.4,443.5,222.4,443.7,222.4,444.4z M222.1,354.1L567.7,9.3H429.5L222.1,215.6V9.3L55.7,172.9v611.2h167.4l-1-204.4
					l204.4,204.4h141.2L222.1,443.2V354.1z"/>
				<line class="st0" x1="221.2" y1="443.4" x2="221.4" y2="443.5"/>
			</g>
			<polyline class="st0" points="221.9,353.8 179.7,396.7 221.9,443.5 			"/>
		</g>
		<g>
			<g>
				<path class="st0" d="M222.1,444.1c0-0.8,0-1-0.5-1v0.5h-45.8l-44.8-46.7l44.8-42.8h45.8v89.1
					C222.1,443.2,222.1,443.3,222.1,444.1z M221.8,353.8L567.4,9H429.2L221.8,215.3V9L55.4,172.6v611.2h167.4l-1-204.4l204.4,204.4
					h141.2L221.8,443V353.8z"/>
				<line class="st0" x1="221" y1="443.1" x2="221.2" y2="443.3"/>
				<path class="st0" d="M221.9,444.7c0-0.8,0-1-0.5-1v0.5h-45.8l-44.8-46.7l44.8-42.8h45.8v89.1
					C221.9,443.7,221.9,443.9,221.9,444.7z M221.7,354.4L567.2,9.6H429L221.7,215.8V9.6L55.2,173.2v611.2h167.4l-1-204.4
					l204.4,204.4h141.2L221.7,443.4V354.4z"/>
				<line class="st0" x1="160.4" y1="471.9" x2="160.6" y2="472.1"/>
			</g>
			<g>
				<path class="st0" d="M222.1,444.7c0-0.8,0-1-0.5-1v0.5h-45.8l-44.8-46.7l44.8-42.8h45.8v89.1
					C222.1,443.7,222.1,443.9,222.1,444.7z M221.8,354.4L567.4,9.6H429.2L221.8,215.8V9.6L55.4,173.2v611.2h167.4l-1-204.4
					l204.4,204.4h141.2L221.8,443.4V354.4z"/>
				<line class="st0" x1="221" y1="443.6" x2="221.2" y2="443.7"/>
			</g>
			<polyline class="st0" points="221.7,354.1 179.5,397 221.7,443.7 			"/>
		</g>
		<g>
			<g>
				<path class="st0" d="M221.9,444.4c0-0.8,0-1-0.5-1v0.5h-45.8l-44.8-46.7l44.8-42.8h45.8v89.1
					C221.9,443.4,221.9,443.6,221.9,444.4z M221.6,354.1L567.2,9.3H428.9L221.6,215.5V9.3L55.1,172.9v611.2h167.4l-1-204.4
					L426,784.2h141.2L221.6,443.2V354.1z"/>
				<line class="st0" x1="220.7" y1="443.3" x2="220.9" y2="443.5"/>
				<path class="st0" d="M221.7,445c0-0.8,0-1-0.5-1v0.5h-45.8l-44.8-46.7l44.8-42.8h45.8V444C221.7,444,221.7,444.2,221.7,445z
					 M221.4,354.7L567,9.8H428.7L221.4,216.1V9.8L54.9,173.5v611.2h167.4l-1-204.4l204.4,204.4H567L221.4,443.7V354.7z"/>
				<line class="st0" x1="160.1" y1="472.2" x2="160.3" y2="472.3"/>
			</g>
			<g>
				<path class="st0" d="M221.9,445c0-0.8,0-1-0.5-1v0.5h-45.8l-44.8-46.7l44.8-42.8h45.8V444C221.9,444,221.9,444.2,221.9,445z
					 M221.6,354.7L567.2,9.8H428.9L221.6,216.1V9.8L55.1,173.5v611.2h167.4l-1-204.4L426,784.6h141.2L221.6,443.7V354.7z"/>
				<line class="st0" x1="220.7" y1="443.9" x2="220.9" y2="444"/>
			</g>
			<polyline class="st0" points="221.4,354.4 179.2,397.2 221.4,444 			"/>
		</g>
		<g>
			<g>
				<path class="st0" d="M221.6,444.7c0-0.8,0-1-0.5-1v0.5h-45.8l-44.8-46.7l44.8-42.8h45.8v89.1
					C221.6,443.7,221.6,443.9,221.6,444.7z M221.3,354.3L566.9,9.5H428.7L221.3,215.8V9.5L54.8,173.2v611.2h167.4l-1-204.4
					l204.4,204.4h141.2L221.3,443.5V354.3z"/>
				<line class="st0" x1="220.4" y1="443.6" x2="220.6" y2="443.8"/>
				<path class="st0" d="M221.4,445.3c0-0.8,0-1-0.5-1v0.5h-45.8l-44.8-46.7l44.8-42.8h45.8v89.1
					C221.4,444.3,221.4,444.5,221.4,445.3z M221.1,354.9L566.7,10.1H428.5L221.1,216.4V10.1L54.6,173.8v611.2h167.4l-1-204.4
					l204.4,204.4h141.2L221.1,444V354.9z"/>
				<line class="st0" x1="159.9" y1="472.4" x2="160.1" y2="472.6"/>
			</g>
			<g>
				<path class="st0" d="M221.6,445.3c0-0.8,0-1-0.5-1v0.5h-45.8l-44.8-46.7l44.8-42.8h45.8v89.1
					C221.6,444.3,221.6,444.5,221.6,445.3z M221.3,354.9L566.9,10.1H428.7L221.3,216.4V10.1L54.8,173.8v611.2h167.4l-1-204.4
					l204.4,204.4h141.2L221.3,444V354.9z"/>
				<line class="st0" x1="220.4" y1="444.2" x2="220.6" y2="444.3"/>
			</g>
			<polyline class="st0" points="221.1,354.6 178.9,397.5 221.1,444.3 			"/>
		</g>
		<g>
			<g>
				<path class="st0" d="M221.3,445c0-0.8,0-1-0.5-1v0.5h-45.8l-44.8-46.7l44.8-42.8h45.8V444C221.3,444,221.3,444.2,221.3,445z
					 M221,354.6L566.6,9.8H428.4L221,216.1V9.8L54.6,173.5v611.2H222l-1-204.4l204.4,204.4h141.2L221,443.8V354.6z"/>
				<line class="st0" x1="220.2" y1="443.9" x2="220.3" y2="444.1"/>
				<path class="st0" d="M221.1,445.6c0-0.8,0-1-0.5-1v0.5h-45.8l-44.8-46.7l44.8-42.8h45.8v89.1
					C221.1,444.6,221.1,444.8,221.1,445.6z M220.8,355.2L566.4,10.4H428.2L220.8,216.7V10.4L54.4,174v611.2h167.4l-1-204.4
					l204.4,204.4h141.2L220.8,444.3V355.2z"/>
				<line class="st0" x1="159.6" y1="472.7" x2="159.8" y2="472.9"/>
			</g>
			<g>
				<path class="st0" d="M221.3,445.6c0-0.8,0-1-0.5-1v0.5h-45.8l-44.8-46.7l44.8-42.8h45.8v89.1
					C221.3,444.6,221.3,444.8,221.3,445.6z M221,355.2L566.6,10.4H428.4L221,216.7V10.4L54.6,174v611.2H222l-1-204.4l204.4,204.4
					h141.2L221,444.3V355.2z"/>
				<line class="st0" x1="220.2" y1="444.5" x2="220.3" y2="444.6"/>
			</g>
			<polyline class="st0" points="220.8,354.9 178.6,397.8 220.8,444.6 			"/>
		</g>
		<g>
			<g>
				<path class="st0" d="M221,445.2c0-0.8,0-1-0.5-1v0.5h-45.8L130,398l44.8-42.8h45.8v89.1C221,444.3,221,444.5,221,445.2z
					 M220.8,354.9L566.3,10.1H428.1L220.8,216.4V10.1L54.3,173.7V785h167.4l-1-204.4L425.2,785h141.2L220.8,444.1V354.9z"/>
				<line class="st0" x1="219.9" y1="444.2" x2="220.1" y2="444.4"/>
				<path class="st0" d="M220.9,445.8c0-0.8,0-1-0.5-1v0.5h-45.8l-44.8-46.7l44.8-42.8h45.8v89.1
					C220.9,444.9,220.9,445.1,220.9,445.8z M220.6,355.5L566.1,10.7H427.9L220.6,217V10.7L54.1,174.3v611.2h167.4l-1-204.4
					L425,785.5h141.2L220.6,444.6V355.5z"/>
				<line class="st0" x1="159.3" y1="473" x2="159.5" y2="473.2"/>
			</g>
			<g>
				<path class="st0" d="M221,445.8c0-0.8,0-1-0.5-1v0.5h-45.8L130,398.6l44.8-42.8h45.8v89.1C221,444.9,221,445.1,221,445.8z
					 M220.8,355.5L566.3,10.7H428.1L220.8,217V10.7L54.3,174.3v611.2h167.4l-1-204.4l204.4,204.4h141.2L220.8,444.6V355.5z"/>
				<line class="st0" x1="219.9" y1="444.8" x2="220.1" y2="444.9"/>
			</g>
			<polyline class="st0" points="220.6,355.2 178.4,398.1 220.6,444.9 			"/>
		</g>
		<g>
			<g>
				<path class="st0" d="M220.8,445.5c0-0.8,0-1-0.5-1v0.5h-45.8l-44.8-46.7l44.8-42.8h45.8v89.1
					C220.8,444.6,220.8,444.7,220.8,445.5z M220.5,355.2L566.1,10.4H427.8L220.5,216.7V10.4L54,174v611.2h167.4l-1-204.4
					l204.4,204.4h141.2L220.5,444.4V355.2z"/>
				<line class="st0" x1="219.6" y1="444.5" x2="219.8" y2="444.6"/>
				<path class="st0" d="M220.6,446.1c0-0.8,0-1-0.5-1v0.5h-45.8l-44.8-46.7l44.8-42.8h45.8v89.1
					C220.6,445.1,220.6,445.3,220.6,446.1z M220.3,355.8L565.9,11H427.6L220.3,217.2V11L53.8,174.6v611.2h167.4l-1-204.4
					l204.4,204.4h141.2L220.3,444.8V355.8z"/>
				<line class="st0" x1="159.1" y1="473.3" x2="159.3" y2="473.5"/>
			</g>
			<g>
				<path class="st0" d="M220.8,446.1c0-0.8,0-1-0.5-1v0.5h-45.8l-44.8-46.7l44.8-42.8h45.8v89.1
					C220.8,445.1,220.8,445.3,220.8,446.1z M220.5,355.8L566.1,11H427.8L220.5,217.2V11L54,174.6v611.2h167.4l-1-204.4l204.4,204.4
					h141.2L220.5,444.8V355.8z"/>
				<line class="st0" x1="219.6" y1="445" x2="219.8" y2="445.1"/>
			</g>
			<polyline class="st0" points="220.3,355.5 178.1,398.4 220.3,445.1 			"/>
		</g>
		<g>
			<g>
				<path class="st0" d="M220.5,445.8c0-0.8,0-1-0.5-1v0.5h-45.8l-44.8-46.7l44.8-42.8H220v89.1C220.5,444.8,220.5,445,220.5,445.8z
					 M220.2,355.5L565.8,10.7H427.6L220.2,216.9V10.7L53.7,174.3v611.2h167.4l-1-204.4l204.4,204.4h141.2L220.2,444.6V355.5z"/>
				<line class="st0" x1="219.3" y1="444.7" x2="219.5" y2="444.9"/>
				<path class="st0" d="M220.3,446.4c0-0.8,0-1-0.5-1v0.5h-45.8l-44.8-46.7l44.8-42.8h45.8v89.1
					C220.3,445.4,220.3,445.6,220.3,446.4z M220,356L565.6,11.2H427.4L220,217.5V11.2L53.6,174.9V786H221l-1-204.4L424.4,786h141.2
					L220,445.1V356z"/>
				<line class="st0" x1="158.8" y1="473.5" x2="159" y2="473.7"/>
			</g>
			<g>
				<path class="st0" d="M220.5,446.4c0-0.8,0-1-0.5-1v0.5h-45.8l-44.8-46.7l44.8-42.8H220v89.1
					C220.5,445.4,220.5,445.6,220.5,446.4z M220.2,356L565.8,11.2H427.6L220.2,217.5V11.2L53.7,174.9V786h167.4l-1-204.4L424.6,786
					h141.2L220.2,445.1V356z"/>
				<line class="st0" x1="219.3" y1="445.3" x2="219.5" y2="445.4"/>
			</g>
			<polyline class="st0" points="220,355.8 177.8,398.6 220,445.4 			"/>
		</g>
		<g>
			<g>
				<path class="st0" d="M220.2,446.1c0-0.8,0-1-0.5-1v0.5H174l-44.8-46.7L174,356h45.8v89.1C220.2,445.1,220.2,445.3,220.2,446.1z
					 M219.9,355.7L565.5,10.9H427.3L219.9,217.2V10.9L53.5,174.6v611.2h167.4l-1-204.4l204.4,204.4h141.2L219.9,444.9V355.7z"/>
				<line class="st0" x1="219.1" y1="445" x2="219.3" y2="445.2"/>
				<path class="st0" d="M220,446.7c0-0.8,0-1-0.5-1v0.5h-45.8L129,399.5l44.8-42.8h45.8v89.1C220,445.7,220,445.9,220,446.7z
					 M219.7,356.3L565.3,11.5H427.1L219.7,217.8V11.5L53.3,175.2v611.2h167.4l-1-204.4l204.4,204.4h141.2L219.7,445.4V356.3z"/>
				<line class="st0" x1="158.5" y1="473.8" x2="158.7" y2="474"/>
			</g>
			<g>
				<path class="st0" d="M220.2,446.7c0-0.8,0-1-0.5-1v0.5H174l-44.8-46.7l44.8-42.8h45.8v89.1C220.2,445.7,220.2,445.9,220.2,446.7
					z M219.9,356.3L565.5,11.5H427.3L219.9,217.8V11.5L53.5,175.2v611.2h167.4l-1-204.4l204.4,204.4h141.2L219.9,445.4V356.3z"/>
				<line class="st0" x1="219.1" y1="445.6" x2="219.3" y2="445.7"/>
			</g>
			<polyline class="st0" points="219.7,356 177.5,398.9 219.7,445.7 			"/>
		</g>
		<g>
			<g>
				<path class="st0" d="M220,446.4c0-0.8,0-1-0.5-1v0.5h-45.8l-44.8-46.7l44.8-42.8h45.8v89.1C220,445.4,220,445.6,220,446.4z
					 M219.7,356L565.3,11.2H427L219.7,217.5V11.2L53.2,174.9v611.2h167.4l-1-204.4l204.4,204.4h141.2L219.7,445.2V356z"/>
				<line class="st0" x1="218.8" y1="445.3" x2="219" y2="445.5"/>
				<path class="st0" d="M219.8,446.9c0-0.8,0-1-0.5-1v0.5h-45.8l-44.8-46.7l44.8-42.8h45.8V446C219.8,446,219.8,446.2,219.8,446.9z
					 M219.5,356.6L565.1,11.8H426.8L219.5,218.1V11.8L53,175.4v611.2h167.4l-1-204.4l204.4,204.4h141.2L219.5,445.7V356.6z"/>
				<line class="st0" x1="158.2" y1="474.1" x2="158.4" y2="474.3"/>
			</g>
			<g>
				<path class="st0" d="M220,446.9c0-0.8,0-1-0.5-1v0.5h-45.8l-44.8-46.7l44.8-42.8h45.8V446C220,446,220,446.2,220,446.9z
					 M219.7,356.6L565.3,11.8H427L219.7,218.1V11.8L53.2,175.4v611.2h167.4l-1-204.4l204.4,204.4h141.2L219.7,445.7V356.6z"/>
				<line class="st0" x1="218.8" y1="445.9" x2="219" y2="446"/>
			</g>
			<polyline class="st0" points="219.5,356.3 177.3,399.2 219.5,446 			"/>
		</g>
		<g>
			<g>
				<path class="st0" d="M219.7,446.6c0-0.8,0-1-0.5-1v0.5h-45.8l-44.8-46.7l44.8-42.8h45.8v89.1
					C219.7,445.7,219.7,445.9,219.7,446.6z M219.4,356.3L565,11.5H426.7L219.4,217.8V11.5L52.9,175.1v611.2h167.4l-1-204.4
					l204.4,204.4H565L219.4,445.5V356.3z"/>
				<line class="st0" x1="218.5" y1="445.6" x2="218.7" y2="445.8"/>
				<path class="st0" d="M219.5,447.2c0-0.8,0-1-0.5-1v0.5h-45.8L128.5,400l44.8-42.8H219v89.1C219.5,446.3,219.5,446.4,219.5,447.2
					z M219.2,356.9L564.8,12.1H426.6L219.2,218.4V12.1L52.7,175.7v611.2h167.4l-1-204.4l204.4,204.4h141.2L219.2,446V356.9z"/>
				<line class="st0" x1="158" y1="474.4" x2="158.2" y2="474.6"/>
			</g>
			<g>
				<path class="st0" d="M219.7,447.2c0-0.8,0-1-0.5-1v0.5h-45.8L128.7,400l44.8-42.8h45.8v89.1
					C219.7,446.3,219.7,446.4,219.7,447.2z M219.4,356.9L565,12.1H426.7L219.4,218.4V12.1L52.9,175.7v611.2h167.4l-1-204.4
					l204.4,204.4H565L219.4,446V356.9z"/>
				<line class="st0" x1="218.5" y1="446.2" x2="218.7" y2="446.3"/>
			</g>
			<polyline class="st0" points="219.2,356.6 177,399.5 219.2,446.3 			"/>
		</g>
		<g>
			<g>
				<path class="st0" d="M219.4,446.9c0-0.8,0-1-0.5-1v0.5h-45.8l-44.8-46.7l44.8-42.8h45.8v89.1
					C219.4,445.9,219.4,446.1,219.4,446.9z M219.1,356.6L564.7,11.8H426.5L219.1,218.1V11.8L52.7,175.4v611.2h167.4l-1-204.4
					l204.4,204.4h141.2L219.1,445.8V356.6z"/>
				<line class="st0" x1="218.2" y1="445.9" x2="218.4" y2="446"/>
				<path class="st0" d="M219.2,447.5c0-0.8,0-1-0.5-1v0.5H173l-44.8-46.7l44.8-42.8h45.8v89.1C219.2,446.5,219.2,446.7,219.2,447.5
					z M218.9,357.2L564.5,12.4H426.3L218.9,218.6V12.4L52.5,176v611.2h167.4l-1-204.4l204.4,204.4h141.2L218.9,446.2V357.2z"/>
				<line class="st0" x1="157.7" y1="474.7" x2="157.9" y2="474.9"/>
			</g>
			<g>
				<path class="st0" d="M219.4,447.5c0-0.8,0-1-0.5-1v0.5h-45.8l-44.8-46.7l44.8-42.8h45.8v89.1
					C219.4,446.5,219.4,446.7,219.4,447.5z M219.1,357.2L564.7,12.4H426.5L219.1,218.6V12.4L52.7,176v611.2h167.4l-1-204.4
					l204.4,204.4h141.2L219.1,446.2V357.2z"/>
				<line class="st0" x1="218.2" y1="446.4" x2="218.4" y2="446.5"/>
			</g>
			<polyline class="st0" points="218.9,356.9 176.7,399.8 218.9,446.5 			"/>
		</g>
		<g>
			<g>
				<path class="st0" d="M219.1,447.2c0-0.8,0-1-0.5-1v0.5h-45.8L128.1,400l44.8-42.8h45.8v89.1
					C219.1,446.2,219.1,446.4,219.1,447.2z M218.8,356.9L564.4,12.1H426.2L218.8,218.3V12.1L52.4,175.7v611.2h167.4l-1-204.4
					l204.4,204.4h141.2L218.8,446V356.9z"/>
				<line class="st0" x1="218" y1="446.1" x2="218.2" y2="446.3"/>
				<path class="st0" d="M218.9,447.8c0-0.8,0-1-0.5-1v0.5h-45.8l-44.8-46.7l44.8-42.8h45.8v89.1C218.9,446.8,218.9,447,218.9,447.8
					z M218.7,357.4L564.2,12.6H426L218.7,218.9V12.6L52.2,176.3v611.2h167.4l-1-204.4l204.4,204.4h141.2L218.7,446.5V357.4z"/>
				<line class="st0" x1="157.4" y1="474.9" x2="157.6" y2="475.1"/>
			</g>
			<g>
				<path class="st0" d="M219.1,447.8c0-0.8,0-1-0.5-1v0.5h-45.8l-44.8-46.7l44.8-42.8h45.8v89.1C219.1,446.8,219.1,447,219.1,447.8
					z M218.8,357.4L564.4,12.6H426.2L218.8,218.9V12.6L52.4,176.3v611.2h167.4l-1-204.4l204.4,204.4h141.2L218.8,446.5V357.4z"/>
				<line class="st0" x1="218" y1="446.7" x2="218.2" y2="446.8"/>
			</g>
			<polyline class="st0" points="218.7,357.2 176.5,400 218.7,446.8 			"/>
		</g>
		<g>
			<g>
				<path class="st0" d="M218.9,447.5c0-0.8,0-1-0.5-1v0.5h-45.8l-44.8-46.7l44.8-42.8h45.8v89.1
					C218.9,446.5,218.9,446.7,218.9,447.5z M218.6,357.1L564.2,12.3H425.9L218.6,218.6V12.3L52.1,176v611.2h167.4l-1-204.4
					L423,787.2h141.2L218.6,446.3V357.1z"/>
				<line class="st0" x1="217.7" y1="446.4" x2="217.9" y2="446.6"/>
				<path class="st0" d="M218.7,448.1c0-0.8,0-1-0.5-1v0.5h-45.8l-44.8-46.7l44.8-42.8h45.8v89.1
					C218.7,447.1,218.7,447.3,218.7,448.1z M218.4,357.7L564,12.9H425.7L218.4,219.2V12.9L51.9,176.6v611.2h167.4l-1-204.4
					l204.4,204.4H564L218.4,446.8V357.7z"/>
				<line class="st0" x1="157.2" y1="475.2" x2="157.3" y2="475.4"/>
			</g>
			<g>
				<path class="st0" d="M218.9,448.1c0-0.8,0-1-0.5-1v0.5h-45.8l-44.8-46.7l44.8-42.8h45.8v89.1
					C218.9,447.1,218.9,447.3,218.9,448.1z M218.6,357.7L564.2,12.9H425.9L218.6,219.2V12.9L52.1,176.6v611.2h167.4l-1-204.4
					L423,787.7h141.2L218.6,446.8V357.7z"/>
				<line class="st0" x1="217.7" y1="447" x2="217.9" y2="447.1"/>
			</g>
			<polyline class="st0" points="218.4,357.4 176.2,400.3 218.4,447.1 			"/>
		</g>
		<g>
			<g>
				<path class="st0" d="M218.6,447.8c0-0.8,0-1-0.5-1v0.5h-45.8l-44.8-46.7l44.8-42.8h45.8v89.1C218.6,446.8,218.6,447,218.6,447.8
					z M218.3,357.4L563.9,12.6H425.7L218.3,218.9V12.6L51.8,176.3v611.2h167.4l-1-204.4l204.4,204.4h141.2L218.3,446.6V357.4z"/>
				<line class="st0" x1="217.4" y1="446.7" x2="217.6" y2="446.9"/>
				<path class="st0" d="M218.4,448.3c0-0.8,0-1-0.5-1v0.5h-45.8l-44.8-46.7l44.8-42.8h45.8v89.1
					C218.4,447.4,218.4,447.6,218.4,448.3z M218.1,358L563.7,13.2H425.5L218.1,219.5V13.2L51.6,176.8V788h167.4l-1-204.4L422.5,788
					h141.2L218.1,447.1V358z"/>
				<line class="st0" x1="156.9" y1="475.5" x2="157.1" y2="475.7"/>
			</g>
			<g>
				<path class="st0" d="M218.6,448.3c0-0.8,0-1-0.5-1v0.5h-45.8l-44.8-46.7l44.8-42.8h45.8v89.1
					C218.6,447.4,218.6,447.6,218.6,448.3z M218.3,358L563.9,13.2H425.7L218.3,219.5V13.2L51.8,176.8V788h167.4l-1-204.4L422.7,788
					h141.2L218.3,447.1V358z"/>
				<line class="st0" x1="217.4" y1="447.3" x2="217.6" y2="447.4"/>
			</g>
			<polyline class="st0" points="218.1,357.7 175.9,400.6 218.1,447.4 			"/>
		</g>
		<g>
			<g>
				<path class="st0" d="M218.3,448c0-0.8,0-1-0.5-1v0.5h-45.8l-44.8-46.7l44.8-42.8h45.8v89.1C218.3,447.1,218.3,447.3,218.3,448z
					 M218,357.7L563.6,12.9H425.4L218,219.2V12.9L51.6,176.5v611.2H219l-1-204.4l204.4,204.4h141.2L218,446.9V357.7z"/>
				<line class="st0" x1="217.2" y1="447" x2="217.4" y2="447.2"/>
				<path class="st0" d="M218.1,448.6c0-0.8,0-1-0.5-1v0.5h-45.8l-44.8-46.7l44.8-42.8h45.8v89.1
					C218.1,447.6,218.1,447.8,218.1,448.6z M217.8,358.3L563.4,13.5H425.2L217.8,219.8V13.5L51.4,177.1v611.2h167.4l-1-204.4
					l204.4,204.4h141.2L217.8,447.4V358.3z"/>
				<line class="st0" x1="156.6" y1="475.8" x2="156.8" y2="476"/>
			</g>
			<g>
				<path class="st0" d="M218.3,448.6c0-0.8,0-1-0.5-1v0.5h-45.8l-44.8-46.7l44.8-42.8h45.8v89.1
					C218.3,447.6,218.3,447.8,218.3,448.6z M218,358.3L563.6,13.5H425.4L218,219.8V13.5L51.6,177.1v611.2H219l-1-204.4l204.4,204.4
					h141.2L218,447.4V358.3z"/>
				<line class="st0" x1="217.2" y1="447.6" x2="217.4" y2="447.6"/>
			</g>
			<polyline class="st0" points="217.8,358 175.6,400.9 217.8,447.6 			"/>
		</g>
		<g>
			<g>
				<path class="st0" d="M218.1,448.3c0-0.8,0-1-0.5-1v0.5h-45.8L127,401.1l44.8-42.8h45.8v89.1
					C218.1,447.3,218.1,447.5,218.1,448.3z M217.8,358L563.3,13.2H425.1L217.8,219.5V13.2L51.3,176.8v611.2h167.4l-1-204.4
					l204.4,204.4h141.2L217.8,447.1V358z"/>
				<line class="st0" x1="216.9" y1="447.2" x2="217.1" y2="447.4"/>
				<path class="st0" d="M217.9,448.9c0-0.8,0-1-0.5-1v0.5h-45.8l-44.8-46.7l44.8-42.8h45.8v89.1
					C217.9,447.9,217.9,448.1,217.9,448.9z M217.6,358.6L563.2,13.8H424.9L217.6,220V13.8L51.1,177.4v611.2h167.4l-1-204.4
					L422,788.5h141.2L217.6,447.6V358.6z"/>
				<line class="st0" x1="156.3" y1="476.1" x2="156.5" y2="476.3"/>
			</g>
			<g>
				<path class="st0" d="M218.1,448.9c0-0.8,0-1-0.5-1v0.5h-45.8L127,401.7l44.8-42.8h45.8v89.1
					C218.1,447.9,218.1,448.1,218.1,448.9z M217.8,358.6L563.3,13.8H425.1L217.8,220V13.8L51.3,177.4v611.2h167.4l-1-204.4
					l204.4,204.4h141.2L217.8,447.6V358.6z"/>
				<line class="st0" x1="216.9" y1="447.8" x2="217.1" y2="447.9"/>
			</g>
			<polyline class="st0" points="217.6,358.3 175.4,401.2 217.6,447.9 			"/>
		</g>
		<g>
			<g>
				<path class="st0" d="M217.8,448.6c0-0.8,0-1-0.5-1v0.5h-45.8l-44.8-46.7l44.8-42.8h45.8v89.1
					C217.8,447.6,217.8,447.8,217.8,448.6z M217.5,358.3L563.1,13.5H424.8L217.5,219.7V13.5L51,177.1v611.2h167.4l-1-204.4
					l204.4,204.4h141.2L217.5,447.4V358.3z"/>
				<line class="st0" x1="216.6" y1="447.5" x2="216.8" y2="447.7"/>
				<path class="st0" d="M217.6,449.2c0-0.8,0-1-0.5-1v0.5h-45.8L126.6,402l44.8-42.8h45.8v89.1
					C217.6,448.2,217.6,448.4,217.6,449.2z M217.3,358.8L562.9,14H424.6L217.3,220.3V14L50.8,177.7v611.2h167.4l-1-204.4
					l204.4,204.4h141.2L217.3,447.9V358.8z"/>
				<line class="st0" x1="156.1" y1="476.3" x2="156.3" y2="476.5"/>
			</g>
			<g>
				<path class="st0" d="M217.8,449.2c0-0.8,0-1-0.5-1v0.5h-45.8L126.8,402l44.8-42.8h45.8v89.1
					C217.8,448.2,217.8,448.4,217.8,449.2z M217.5,358.8L563.1,14H424.8L217.5,220.3V14L51,177.7v611.2h167.4l-1-204.4l204.4,204.4
					h141.2L217.5,447.9V358.8z"/>
				<line class="st0" x1="216.6" y1="448.1" x2="216.8" y2="448.2"/>
			</g>
			<polyline class="st0" points="217.3,358.5 175.1,401.4 217.3,448.2 			"/>
		</g>
		<g>
			<g>
				<path class="st0" d="M217.5,448.9c0-0.8,0-1-0.5-1v0.5h-45.8l-44.8-46.7l44.8-42.8H217v89.1
					C217.5,447.9,217.5,448.1,217.5,448.9z M217.2,358.5L562.8,13.7H424.6L217.2,220V13.7L50.8,177.4v611.2h167.4l-1-204.4
					l204.4,204.4h141.2L217.2,447.7V358.5z"/>
				<line class="st0" x1="216.3" y1="447.8" x2="216.5" y2="448"/>
				<path class="st0" d="M217.3,449.5c0-0.8,0-1-0.5-1v0.5h-45.8l-44.8-46.7l44.8-42.8h45.8v89.1
					C217.3,448.5,217.3,448.7,217.3,449.5z M217,359.1L562.6,14.3H424.4L217,220.6V14.3L50.6,178v611.2H218l-1-204.4l204.4,204.4
					h141.2L217,448.2V359.1z"/>
				<line class="st0" x1="155.8" y1="476.6" x2="156" y2="476.8"/>
			</g>
			<g>
				<path class="st0" d="M217.5,449.5c0-0.8,0-1-0.5-1v0.5h-45.8l-44.8-46.7l44.8-42.8H217v89.1
					C217.5,448.5,217.5,448.7,217.5,449.5z M217.2,359.1L562.8,14.3H424.6L217.2,220.6V14.3L50.8,178v611.2h167.4l-1-204.4
					l204.4,204.4h141.2L217.2,448.2V359.1z"/>
				<line class="st0" x1="216.3" y1="448.4" x2="216.5" y2="448.5"/>
			</g>
			<polyline class="st0" points="217,358.8 174.8,401.7 217,448.5 			"/>
		</g>
		<g>
			<g>
				<path class="st0" d="M217.2,449.2c0-0.8,0-1-0.5-1v0.5H171l-44.8-46.7l44.8-42.8h45.8v89.1C217.2,448.2,217.2,448.4,217.2,449.2
					z M216.9,358.8L562.5,14H424.3L216.9,220.3V14L50.5,177.7v611.2h167.4l-1-204.4l204.4,204.4h141.2L216.9,448V358.8z"/>
				<line class="st0" x1="216.1" y1="448.1" x2="216.3" y2="448.3"/>
				<path class="st0" d="M217,449.7c0-0.8,0-1-0.5-1v0.5h-45.8L126,402.5l44.8-42.8h45.8v89.1C217,448.8,217,449,217,449.7z
					 M216.7,359.4L562.3,14.6H424.1L216.7,220.9V14.6L50.3,178.2v611.2h167.4l-1-204.4l204.4,204.4h141.2L216.7,448.5V359.4z"/>
				<line class="st0" x1="155.5" y1="476.9" x2="155.7" y2="477.1"/>
			</g>
			<g>
				<path class="st0" d="M217.2,449.7c0-0.8,0-1-0.5-1v0.5H171l-44.8-46.7l44.8-42.8h45.8v89.1C217.2,448.8,217.2,449,217.2,449.7z
					 M216.9,359.4L562.5,14.6H424.3L216.9,220.9V14.6L50.5,178.2v611.2h167.4l-1-204.4l204.4,204.4h141.2L216.9,448.5V359.4z"/>
				<line class="st0" x1="216.1" y1="448.7" x2="216.3" y2="448.8"/>
			</g>
			<polyline class="st0" points="216.7,359.1 174.6,402 216.7,448.8 			"/>
		</g>
		<g>
			<g>
				<path class="st0" d="M217,449.4c0-0.8,0-1-0.5-1v0.5h-45.8l-44.8-46.7l44.8-42.8h45.8v89.1C217,448.5,217,448.7,217,449.4z
					 M216.7,359.1L562.3,14.3H424L216.7,220.6V14.3L50.2,177.9v611.2h167.4l-1-204.4l204.4,204.4h141.2L216.7,448.3V359.1z"/>
				<line class="st0" x1="215.8" y1="448.4" x2="216" y2="448.6"/>
				<path class="st0" d="M216.8,450c0-0.8,0-1-0.5-1v0.5h-45.8l-44.8-46.7l44.8-42.8h45.8V449C216.8,449,216.8,449.2,216.8,450z
					 M216.5,359.7L562.1,14.9H423.8L216.5,221.2V14.9L50,178.5v611.2h167.4l-1-204.4l204.4,204.4h141.2L216.5,448.8V359.7z"/>
				<line class="st0" x1="155.2" y1="477.2" x2="155.4" y2="477.4"/>
			</g>
			<g>
				<path class="st0" d="M217,450c0-0.8,0-1-0.5-1v0.5h-45.8l-44.8-46.7l44.8-42.8h45.8V449C217,449,217,449.2,217,450z
					 M216.7,359.7L562.3,14.9H424L216.7,221.2V14.9L50.2,178.5v611.2h167.4l-1-204.4l204.4,204.4h141.2L216.7,448.8V359.7z"/>
				<line class="st0" x1="215.8" y1="448.9" x2="216" y2="449"/>
			</g>
			<polyline class="st0" points="216.5,359.4 174.3,402.3 216.5,449 			"/>
		</g>
		<g>
			<g>
				<path class="st0" d="M216.7,449.7c0-0.8,0-1-0.5-1v0.5h-45.8l-44.8-46.7l44.8-42.8h45.8v89.1
					C216.7,448.7,216.7,448.9,216.7,449.7z M216.4,359.4L562,14.6H423.8L216.4,220.8V14.6L49.9,178.2v611.2h167.4l-1-204.4
					l204.4,204.4H562L216.4,448.5V359.4z"/>
				<line class="st0" x1="215.5" y1="448.6" x2="215.7" y2="448.8"/>
				<path class="st0" d="M216.5,450.3c0-0.8,0-1-0.5-1v0.5h-45.8l-44.8-46.7l44.8-42.8H216v89.1
					C216.5,449.3,216.5,449.5,216.5,450.3z M216.2,360L561.8,15.2H423.6L216.2,221.4V15.2L49.7,178.8v611.2h167.4l-1-204.4
					l204.4,204.4h141.2L216.2,449V360z"/>
				<line class="st0" x1="155" y1="477.5" x2="155.2" y2="477.7"/>
			</g>
			<g>
				<path class="st0" d="M216.7,450.3c0-0.8,0-1-0.5-1v0.5h-45.8l-44.8-46.7l44.8-42.8h45.8v89.1
					C216.7,449.3,216.7,449.5,216.7,450.3z M216.4,360L562,15.2H423.8L216.4,221.4V15.2L49.9,178.8v611.2h167.4l-1-204.4
					l204.4,204.4H562L216.4,449V360z"/>
				<line class="st0" x1="215.5" y1="449.2" x2="215.7" y2="449.3"/>
			</g>
			<polyline class="st0" points="216.2,359.7 174,402.5 216.2,449.3 			"/>
		</g>
		<g>
			<g>
				<path class="st0" d="M216.4,450c0-0.8,0-1-0.5-1v0.5h-45.8l-44.8-46.7l44.8-42.8h45.8V449C216.4,449,216.4,449.2,216.4,450z
					 M216.1,359.7L561.7,14.8H423.5L216.1,221.1V14.8L49.7,178.5v611.2h167.4l-1-204.4l204.4,204.4h141.2L216.1,448.8V359.7z"/>
				<line class="st0" x1="215.3" y1="448.9" x2="215.4" y2="449.1"/>
				<path class="st0" d="M216.2,450.6c0-0.8,0-1-0.5-1v0.5H170l-44.8-46.7l44.8-42.8h45.8v89.1C216.2,449.6,216.2,449.8,216.2,450.6
					z M215.9,360.2L561.5,15.4H423.3L215.9,221.7V15.4L49.5,179.1v611.2h167.4l-1-204.4l204.4,204.4h141.2L215.9,449.3V360.2z"/>
				<line class="st0" x1="154.7" y1="477.7" x2="154.9" y2="477.9"/>
			</g>
			<g>
				<path class="st0" d="M216.4,450.6c0-0.8,0-1-0.5-1v0.5h-45.8l-44.8-46.7l44.8-42.8h45.8v89.1
					C216.4,449.6,216.4,449.8,216.4,450.6z M216.1,360.2L561.7,15.4H423.5L216.1,221.7V15.4L49.7,179.1v611.2h167.4l-1-204.4
					l204.4,204.4h141.2L216.1,449.3V360.2z"/>
				<line class="st0" x1="215.3" y1="449.5" x2="215.4" y2="449.6"/>
			</g>
			<polyline class="st0" points="215.9,359.9 173.7,402.8 215.9,449.6 			"/>
		</g>
		<g>
			<g>
				<path class="st0" d="M216.1,450.3c0-0.8,0-1-0.5-1v0.5h-45.8l-44.8-46.7l44.8-42.8h45.8v89.1
					C216.1,449.3,216.1,449.5,216.1,450.3z M215.9,359.9L561.4,15.1H423.2L215.9,221.4V15.1L49.4,178.8V790h167.4l-1-204.4
					L420.3,790h141.2L215.9,449.1V359.9z"/>
				<line class="st0" x1="215" y1="449.2" x2="215.2" y2="449.4"/>
				<path class="st0" d="M216,450.9c0-0.8,0-1-0.5-1v0.5h-45.8l-44.8-46.7l44.8-42.8h45.8v89.1C216,449.9,216,450.1,216,450.9z
					 M215.7,360.5L561.2,15.7H423L215.7,222V15.7L49.2,179.4v611.2h167.4l-1-204.4l204.4,204.4h141.2L215.7,449.6V360.5z"/>
				<line class="st0" x1="154.4" y1="478" x2="154.6" y2="478.2"/>
			</g>
			<g>
				<path class="st0" d="M216.1,450.9c0-0.8,0-1-0.5-1v0.5h-45.8l-44.8-46.7l44.8-42.8h45.8v89.1
					C216.1,449.9,216.1,450.1,216.1,450.9z M215.9,360.5L561.4,15.7H423.2L215.9,222V15.7L49.4,179.4v611.2h167.4l-1-204.4
					l204.4,204.4h141.2L215.9,449.6V360.5z"/>
				<line class="st0" x1="215" y1="449.8" x2="215.2" y2="449.9"/>
			</g>
			<polyline class="st0" points="215.7,360.2 173.5,403.1 215.7,449.9 			"/>
		</g>
		<g>
			<g>
				<path class="st0" d="M215.9,450.6c0-0.8,0-1-0.5-1v0.5h-45.8l-44.8-46.7l44.8-42.8h45.8v89.1
					C215.9,449.6,215.9,449.8,215.9,450.6z M215.6,360.2L561.2,15.4H422.9L215.6,221.7V15.4L49.1,179v611.2h167.4l-1-204.4
					L420,790.3h141.2L215.6,449.4V360.2z"/>
				<line class="st0" x1="214.7" y1="449.5" x2="214.9" y2="449.7"/>
				<path class="st0" d="M215.7,451.1c0-0.8,0-1-0.5-1v0.5h-45.8l-44.8-46.7l44.8-42.8h45.8v89.1
					C215.7,450.2,215.7,450.4,215.7,451.1z M215.4,360.8L561,16H422.7L215.4,222.3V16L48.9,179.6v611.2h167.4l-1-204.4l204.4,204.4
					H561L215.4,449.9V360.8z"/>
				<line class="st0" x1="154.2" y1="478.3" x2="154.4" y2="478.5"/>
			</g>
			<g>
				<path class="st0" d="M215.9,451.1c0-0.8,0-1-0.5-1v0.5h-45.8l-44.8-46.7l44.8-42.8h45.8v89.1
					C215.9,450.2,215.9,450.4,215.9,451.1z M215.6,360.8L561.2,16H422.9L215.6,222.3V16L49.1,179.6v611.2h167.4l-1-204.4L420,790.8
					h141.2L215.6,449.9V360.8z"/>
				<line class="st0" x1="214.7" y1="450.1" x2="214.9" y2="450.2"/>
			</g>
			<polyline class="st0" points="215.4,360.5 173.2,403.4 215.4,450.2 			"/>
		</g>
		<g>
			<g>
				<path class="st0" d="M215.6,450.8c0-0.8,0-1-0.5-1v0.5h-45.8l-44.8-46.7l44.8-42.8h45.8v89.1
					C215.6,449.9,215.6,450.1,215.6,450.8z M215.3,360.5L560.9,15.7H422.7L215.3,222V15.7L48.8,179.3v611.2h167.4l-1-204.4
					l204.4,204.4h141.2L215.3,449.7V360.5z"/>
				<line class="st0" x1="214.4" y1="449.8" x2="214.6" y2="450"/>
				<path class="st0" d="M215.4,451.4c0-0.8,0-1-0.5-1v0.5h-45.8l-44.8-46.7l44.8-42.8h45.8v89.1
					C215.4,450.4,215.4,450.6,215.4,451.4z M215.1,361.1L560.7,16.3H422.5L215.1,222.5V16.3L48.6,179.9v611.2h167.4l-1-204.4
					l204.4,204.4h141.2L215.1,450.1V361.1z"/>
				<line class="st0" x1="153.9" y1="478.6" x2="154.1" y2="478.8"/>
			</g>
			<g>
				<path class="st0" d="M215.6,451.4c0-0.8,0-1-0.5-1v0.5h-45.8l-44.8-46.7l44.8-42.8h45.8v89.1
					C215.6,450.4,215.6,450.6,215.6,451.4z M215.3,361.1L560.9,16.3H422.7L215.3,222.5V16.3L48.8,179.9v611.2h167.4l-1-204.4
					l204.4,204.4h141.2L215.3,450.1V361.1z"/>
				<line class="st0" x1="214.4" y1="450.3" x2="214.6" y2="450.4"/>
			</g>
			<polyline class="st0" points="215.1,360.8 172.9,403.7 215.1,450.4 			"/>
		</g>
		<g>
			<g>
				<path class="st0" d="M215.3,451.1c0-0.8,0-1-0.5-1v0.5h-45.8l-44.8-46.7l44.8-42.8h45.8v89.1
					C215.3,450.1,215.3,450.3,215.3,451.1z M215,360.8L560.6,16H422.4L215,222.2V16L48.6,179.6v611.2H216l-1-204.4l204.4,204.4
					h141.2L215,449.9V360.8z"/>
				<line class="st0" x1="214.2" y1="450" x2="214.4" y2="450.2"/>
				<path class="st0" d="M215.1,451.7c0-0.8,0-1-0.5-1v0.5h-45.8l-44.8-46.7l44.8-42.8h45.8v89.1
					C215.1,450.7,215.1,450.9,215.1,451.7z M214.8,361.4L560.4,16.5H422.2L214.8,222.8V16.5L48.4,180.2v611.2h167.4l-1-204.4
					l204.4,204.4h141.2L214.8,450.4V361.4z"/>
				<line class="st0" x1="153.6" y1="478.9" x2="153.8" y2="479"/>
			</g>
			<g>
				<path class="st0" d="M215.3,451.7c0-0.8,0-1-0.5-1v0.5h-45.8l-44.8-46.7l44.8-42.8h45.8v89.1
					C215.3,450.7,215.3,450.9,215.3,451.7z M215,361.4L560.6,16.5H422.4L215,222.8V16.5L48.6,180.2v611.2H216l-1-204.4l204.4,204.4
					h141.2L215,450.4V361.4z"/>
				<line class="st0" x1="214.2" y1="450.6" x2="214.4" y2="450.7"/>
			</g>
			<polyline class="st0" points="214.8,361.1 172.6,403.9 214.8,450.7 			"/>
		</g>
		<g>
			<g>
				<path class="st0" d="M215.1,451.4c0-0.8,0-1-0.5-1v0.5h-45.8L124,404.2l44.8-42.8h45.8v89.1
					C215.1,450.4,215.1,450.6,215.1,451.4z M214.8,361.1L560.4,16.2H422.1L214.8,222.5V16.2L48.3,179.9v611.2h167.4l-1-204.4
					l204.4,204.4h141.2L214.8,450.2V361.1z"/>
				<line class="st0" x1="213.9" y1="450.3" x2="214.1" y2="450.5"/>
				<path class="st0" d="M214.9,452c0-0.8,0-1-0.5-1v0.5h-45.8l-44.8-46.7l44.8-42.8h45.8V451C214.9,451,214.9,451.2,214.9,452z
					 M214.6,361.6L560.2,16.8H421.9L214.6,223.1V16.8L48.1,180.5v611.2h167.4l-1-204.4L419,791.6h141.2L214.6,450.7V361.6z"/>
				<line class="st0" x1="153.3" y1="479.1" x2="153.5" y2="479.3"/>
			</g>
			<g>
				<path class="st0" d="M215.1,452c0-0.8,0-1-0.5-1v0.5h-45.8L124,404.8l44.8-42.8h45.8V451C215.1,451,215.1,451.2,215.1,452z
					 M214.8,361.6L560.4,16.8H422.1L214.8,223.1V16.8L48.3,180.5v611.2h167.4l-1-204.4l204.4,204.4h141.2L214.8,450.7V361.6z"/>
				<line class="st0" x1="213.9" y1="450.9" x2="214.1" y2="451"/>
			</g>
			<polyline class="st0" points="214.6,361.3 172.4,404.2 214.6,451 			"/>
		</g>
		<g>
			<g>
				<path class="st0" d="M214.8,451.7c0-0.8,0-1-0.5-1v0.5h-45.8l-44.8-46.7l44.8-42.8h45.8v89.1
					C214.8,450.7,214.8,450.9,214.8,451.7z M214.5,361.3L560.1,16.5H421.8L214.5,222.8V16.5L48,180.2v611.2h167.4l-1-204.4
					l204.4,204.4h141.2L214.5,450.5V361.3z"/>
				<line class="st0" x1="213.6" y1="450.6" x2="213.8" y2="450.8"/>
				<path class="st0" d="M214.6,452.3c0-0.8,0-1-0.5-1v0.5h-45.8L123.6,405l44.8-42.8h45.8v89.1
					C214.6,451.3,214.6,451.5,214.6,452.3z M214.3,361.9L559.9,17.1H421.6L214.3,223.4V17.1L47.8,180.7v611.2h167.4l-1-204.4
					l204.4,204.4h141.2L214.3,451V361.9z"/>
				<line class="st0" x1="153.1" y1="479.4" x2="153.3" y2="479.6"/>
			</g>
			<g>
				<path class="st0" d="M214.8,452.3c0-0.8,0-1-0.5-1v0.5h-45.8L123.8,405l44.8-42.8h45.8v89.1
					C214.8,451.3,214.8,451.5,214.8,452.3z M214.5,361.9L560.1,17.1H421.8L214.5,223.4V17.1L48,180.7v611.2h167.4l-1-204.4
					l204.4,204.4h141.2L214.5,451V361.9z"/>
				<line class="st0" x1="213.6" y1="451.2" x2="213.8" y2="451.3"/>
			</g>
			<polyline class="st0" points="214.3,361.6 172.1,404.5 214.3,451.3 			"/>
		</g>
		<g>
			<g>
				<path class="st0" d="M214.5,451.9c0-0.8,0-1-0.5-1v0.5h-45.8l-44.8-46.7l44.8-42.8H214V451C214.5,451,214.5,451.2,214.5,451.9z
					 M214.2,361.6L559.8,16.8H421.6L214.2,223.1V16.8L47.8,180.4v611.2h167.4l-1-204.4l204.4,204.4h141.2L214.2,450.8V361.6z"/>
				<line class="st0" x1="213.3" y1="450.9" x2="213.5" y2="451.1"/>
				<path class="st0" d="M214.3,452.5c0-0.8,0-1-0.5-1v0.5h-45.8l-44.8-46.7l44.8-42.8h45.8v89.1
					C214.3,451.6,214.3,451.8,214.3,452.5z M214,362.2L559.6,17.4H421.4L214,223.7V17.4L47.6,181v611.2H215l-1-204.4l204.4,204.4
					h141.2L214,451.3V362.2z"/>
				<line class="st0" x1="152.8" y1="479.7" x2="153" y2="479.9"/>
			</g>
			<g>
				<path class="st0" d="M214.5,452.5c0-0.8,0-1-0.5-1v0.5h-45.8l-44.8-46.7l44.8-42.8H214v89.1
					C214.5,451.6,214.5,451.8,214.5,452.5z M214.2,362.2L559.8,17.4H421.6L214.2,223.7V17.4L47.8,181v611.2h167.4l-1-204.4
					l204.4,204.4h141.2L214.2,451.3V362.2z"/>
				<line class="st0" x1="213.3" y1="451.5" x2="213.5" y2="451.6"/>
			</g>
			<polyline class="st0" points="214,361.9 171.8,404.8 214,451.6 			"/>
		</g>
		<g>
			<g>
				<path class="st0" d="M214.2,452.2c0-0.8,0-1-0.5-1v0.5H168L123.2,405l44.8-42.8h45.8v89.1C214.2,451.3,214.2,451.4,214.2,452.2z
					 M213.9,361.9L559.5,17.1H421.3L213.9,223.4V17.1L47.5,180.7V792h167.4l-1-204.4L418.4,792h141.2L213.9,451.1V361.9z"/>
				<line class="st0" x1="213.1" y1="451.2" x2="213.3" y2="451.4"/>
				<path class="st0" d="M214,452.8c0-0.8,0-1-0.5-1v0.5h-45.8L123,405.6l44.8-42.8h45.8v89.1C214,451.8,214,452,214,452.8z
					 M213.8,362.5L559.3,17.7H421.1L213.8,223.9V17.7L47.3,181.3v611.2h167.4l-1-204.4l204.4,204.4h141.2L213.8,451.5V362.5z"/>
				<line class="st0" x1="152.5" y1="480" x2="152.7" y2="480.2"/>
			</g>
			<g>
				<path class="st0" d="M214.2,452.8c0-0.8,0-1-0.5-1v0.5H168l-44.8-46.7l44.8-42.8h45.8v89.1C214.2,451.8,214.2,452,214.2,452.8z
					 M213.9,362.5L559.5,17.7H421.3L213.9,223.9V17.7L47.5,181.3v611.2h167.4l-1-204.4l204.4,204.4h141.2L213.9,451.5V362.5z"/>
				<line class="st0" x1="213.1" y1="451.7" x2="213.3" y2="451.8"/>
			</g>
			<polyline class="st0" points="213.8,362.2 171.6,405.1 213.8,451.8 			"/>
		</g>
		<g>
			<g>
				<path class="st0" d="M214,452.5c0-0.8,0-1-0.5-1v0.5h-45.8l-44.8-46.7l44.8-42.8h45.8v89.1C214,451.5,214,451.7,214,452.5z
					 M213.7,362.2L559.3,17.4H421L213.7,223.6V17.4L47.2,181v611.2h167.4l-1-204.4l204.4,204.4h141.2L213.7,451.3V362.2z"/>
				<line class="st0" x1="212.8" y1="451.4" x2="213" y2="451.6"/>
				<path class="st0" d="M213.8,453.1c0-0.8,0-1-0.5-1v0.5h-45.8l-44.8-46.7l44.8-42.8h45.8v89.1
					C213.8,452.1,213.8,452.3,213.8,453.1z M213.5,362.8L559.1,17.9H420.8L213.5,224.2V17.9L47,181.6v611.2h167.4l-1-204.4
					l204.4,204.4h141.2L213.5,451.8V362.8z"/>
				<line class="st0" x1="152.2" y1="480.3" x2="152.4" y2="480.4"/>
			</g>
			<g>
				<path class="st0" d="M214,453.1c0-0.8,0-1-0.5-1v0.5h-45.8l-44.8-46.7l44.8-42.8h45.8v89.1C214,452.1,214,452.3,214,453.1z
					 M213.7,362.8L559.3,17.9H421L213.7,224.2V17.9L47.2,181.6v611.2h167.4l-1-204.4l204.4,204.4h141.2L213.7,451.8V362.8z"/>
				<line class="st0" x1="212.8" y1="452" x2="213" y2="452.1"/>
			</g>
			<polyline class="st0" points="213.5,362.5 171.3,405.3 213.5,452.1 			"/>
		</g>
		<g>
			<g>
				<path class="st0" d="M213.7,452.8c0-0.8,0-1-0.5-1v0.5h-45.8l-44.8-46.7l44.8-42.8h45.8v89.1C213.7,451.8,213.7,452,213.7,452.8
					z M213.4,362.4L559,17.6H420.8L213.4,223.9V17.6L46.9,181.3v611.2h167.4l-1-204.4l204.4,204.4H559L213.4,451.6V362.4z"/>
				<line class="st0" x1="212.5" y1="451.7" x2="212.7" y2="451.9"/>
				<path class="st0" d="M213.5,453.4c0-0.8,0-1-0.5-1v0.5h-45.8l-44.8-46.7l44.8-42.8H213v89.1
					C213.5,452.4,213.5,452.6,213.5,453.4z M213.2,363L558.8,18.2H420.6L213.2,224.5V18.2L46.7,181.9V793h167.4l-1-204.4L417.6,793
					h141.2L213.2,452.1V363z"/>
				<line class="st0" x1="152" y1="480.5" x2="152.2" y2="480.7"/>
			</g>
			<g>
				<path class="st0" d="M213.7,453.4c0-0.8,0-1-0.5-1v0.5h-45.8l-44.8-46.7l44.8-42.8h45.8v89.1
					C213.7,452.4,213.7,452.6,213.7,453.4z M213.4,363L559,18.2H420.8L213.4,224.5V18.2L46.9,181.9V793h167.4l-1-204.4L417.8,793
					H559L213.4,452.1V363z"/>
				<line class="st0" x1="212.5" y1="452.3" x2="212.7" y2="452.4"/>
			</g>
			<polyline class="st0" points="213.2,362.7 171,405.6 213.2,452.4 			"/>
		</g>
		<g>
			<g>
				<path class="st0" d="M213.4,453.1c0-0.8,0-1-0.5-1v0.5h-45.8l-44.8-46.7l44.8-42.8h45.8v89.1
					C213.4,452.1,213.4,452.3,213.4,453.1z M213.1,362.7L558.7,17.9H420.5L213.1,224.2V17.9L46.7,181.6v611.2h167.4l-1-204.4
					l204.4,204.4h141.2L213.1,451.9V362.7z"/>
				<line class="st0" x1="212.3" y1="452" x2="212.5" y2="452.2"/>
				<path class="st0" d="M213.2,453.6c0-0.8,0-1-0.5-1v0.5H167l-44.8-46.7l44.8-42.8h45.8v89.1C213.2,452.7,213.2,452.9,213.2,453.6
					z M212.9,363.3L558.5,18.5H420.3L212.9,224.8V18.5L46.5,182.1v611.2h167.4l-1-204.4l204.4,204.4h141.2L212.9,452.4V363.3z"/>
				<line class="st0" x1="151.7" y1="480.8" x2="151.9" y2="481"/>
			</g>
			<g>
				<path class="st0" d="M213.4,453.6c0-0.8,0-1-0.5-1v0.5h-45.8l-44.8-46.7l44.8-42.8h45.8v89.1
					C213.4,452.7,213.4,452.9,213.4,453.6z M213.1,363.3L558.7,18.5H420.5L213.1,224.8V18.5L46.7,182.1v611.2h167.4l-1-204.4
					l204.4,204.4h141.2L213.1,452.4V363.3z"/>
				<line class="st0" x1="212.3" y1="452.6" x2="212.5" y2="452.7"/>
			</g>
			<polyline class="st0" points="212.9,363 170.7,405.9 212.9,452.7 			"/>
		</g>
		<g>
			<g>
				<path class="st0" d="M213.2,453.3c0-0.8,0-1-0.5-1v0.5h-45.8l-44.8-46.7l44.8-42.8h45.8v89.1
					C213.2,452.4,213.2,452.6,213.2,453.3z M212.9,363L558.4,18.2H420.2L212.9,224.5V18.2L46.4,181.8v611.2h167.4l-1-204.4
					l204.4,204.4h141.2L212.9,452.2V363z"/>
				<line class="st0" x1="212" y1="452.3" x2="212.2" y2="452.5"/>
				<path class="st0" d="M213,453.9c0-0.8,0-1-0.5-1v0.5h-45.8l-44.8-46.7l44.8-42.8h45.8V453C213,453,213,453.1,213,453.9z
					 M212.7,363.6L558.3,18.8H420L212.7,225.1V18.8L46.2,182.4v611.2h167.4l-1-204.4l204.4,204.4h141.2L212.7,452.7V363.6z"/>
				<line class="st0" x1="151.4" y1="481.1" x2="151.6" y2="481.3"/>
			</g>
			<g>
				<path class="st0" d="M213.2,453.9c0-0.8,0-1-0.5-1v0.5h-45.8l-44.8-46.7l44.8-42.8h45.8V453C213.2,453,213.2,453.1,213.2,453.9z
					 M212.9,363.6L558.4,18.8H420.2L212.9,225.1V18.8L46.4,182.4v611.2h167.4l-1-204.4l204.4,204.4h141.2L212.9,452.7V363.6z"/>
				<line class="st0" x1="212" y1="452.9" x2="212.2" y2="453"/>
			</g>
			<polyline class="st0" points="212.7,363.3 170.5,406.2 212.7,453 			"/>
		</g>
		<g>
			<g>
				<path class="st0" d="M212.9,453.6c0-0.8,0-1-0.5-1v0.5h-45.8l-44.8-46.7l44.8-42.8h45.8v89.1
					C212.9,452.7,212.9,452.8,212.9,453.6z M212.6,363.3L558.2,18.5H419.9L212.6,224.8V18.5L46.1,182.1v611.2h167.4l-1-204.4
					L417,793.4h141.2L212.6,452.5V363.3z"/>
				<line class="st0" x1="211.7" y1="452.6" x2="211.9" y2="452.7"/>
				<path class="st0" d="M212.7,454.2c0-0.8,0-1-0.5-1v0.5h-45.8L121.7,407l44.8-42.8h45.8v89.1
					C212.7,453.2,212.7,453.4,212.7,454.2z M212.4,363.9L558,19.1H419.7L212.4,225.3V19.1L45.9,182.7v611.2h167.4l-1-204.4
					l204.4,204.4H558L212.4,452.9V363.9z"/>
				<line class="st0" x1="151.2" y1="481.4" x2="151.4" y2="481.6"/>
			</g>
			<g>
				<path class="st0" d="M212.9,454.2c0-0.8,0-1-0.5-1v0.5h-45.8L121.9,407l44.8-42.8h45.8v89.1
					C212.9,453.2,212.9,453.4,212.9,454.2z M212.6,363.9L558.2,19.1H419.9L212.6,225.3V19.1L46.1,182.7v611.2h167.4l-1-204.4
					L417,793.9h141.2L212.6,452.9V363.9z"/>
				<line class="st0" x1="211.7" y1="453.1" x2="211.9" y2="453.2"/>
			</g>
			<polyline class="st0" points="212.4,363.6 170.2,406.5 212.4,453.2 			"/>
		</g>
		<g>
			<g>
				<path class="st0" d="M212.6,453.9c0-0.8,0-1-0.5-1v0.5h-45.8l-44.8-46.7l44.8-42.8h45.8v89.1
					C212.6,452.9,212.6,453.1,212.6,453.9z M212.3,363.6L557.9,18.8H419.7L212.3,225V18.8L45.8,182.4v611.2h167.4l-1-204.4
					l204.4,204.4h141.2L212.3,452.7V363.6z"/>
				<line class="st0" x1="211.4" y1="452.8" x2="211.6" y2="453"/>
				<path class="st0" d="M212.4,454.5c0-0.8,0-1-0.5-1v0.5h-45.8l-44.8-46.7l44.8-42.8h45.8v89.1
					C212.4,453.5,212.4,453.7,212.4,454.5z M212.1,364.1L557.7,19.3H419.5L212.1,225.6V19.3L45.7,183v611.2h167.4l-1-204.4
					l204.4,204.4h141.2L212.1,453.2V364.1z"/>
				<line class="st0" x1="150.9" y1="481.6" x2="151.1" y2="481.8"/>
			</g>
			<g>
				<path class="st0" d="M212.6,454.5c0-0.8,0-1-0.5-1v0.5h-45.8l-44.8-46.7l44.8-42.8h45.8v89.1
					C212.6,453.5,212.6,453.7,212.6,454.5z M212.3,364.1L557.9,19.3H419.7L212.3,225.6V19.3L45.8,183v611.2h167.4l-1-204.4
					l204.4,204.4h141.2L212.3,453.2V364.1z"/>
				<line class="st0" x1="211.4" y1="453.4" x2="211.6" y2="453.5"/>
			</g>
			<polyline class="st0" points="212.1,363.9 169.9,406.7 212.1,453.5 			"/>
		</g>
		<g>
			<g>
				<path class="st0" d="M212.3,454.2c0-0.8,0-1-0.5-1v0.5h-45.8L121.3,407l44.8-42.8h45.8v89.1
					C212.3,453.2,212.3,453.4,212.3,454.2z M212,363.8L557.6,19H419.4L212,225.3V19L45.6,182.7v611.2H213l-1-204.4l204.4,204.4
					h141.2L212,453V363.8z"/>
				<line class="st0" x1="211.2" y1="453.1" x2="211.4" y2="453.3"/>
				<path class="st0" d="M212.1,454.8c0-0.8,0-1-0.5-1v0.5h-45.8l-44.8-46.7l44.8-42.8h45.8v89.1C212.1,453.8,212.1,454,212.1,454.8
					z M211.8,364.4L557.4,19.6H419.2L211.8,225.9V19.6L45.4,183.3v611.2h167.4l-1-204.4l204.4,204.4h141.2L211.8,453.5V364.4z"/>
				<line class="st0" x1="150.6" y1="481.9" x2="150.8" y2="482.1"/>
			</g>
			<g>
				<path class="st0" d="M212.3,454.8c0-0.8,0-1-0.5-1v0.5h-45.8l-44.8-46.7l44.8-42.8h45.8v89.1C212.3,453.8,212.3,454,212.3,454.8
					z M212,364.4L557.6,19.6H419.4L212,225.9V19.6L45.6,183.3v611.2H213L212,590l204.4,204.4h141.2L212,453.5V364.4z"/>
				<line class="st0" x1="211.2" y1="453.7" x2="211.4" y2="453.8"/>
			</g>
			<polyline class="st0" points="211.8,364.1 169.7,407 211.8,453.8 			"/>
		</g>
		<g>
			<g>
				<path class="st0" d="M212.1,454.5c0-0.8,0-1-0.5-1v0.5h-45.8L121,407.2l44.8-42.8h45.8v89.1
					C212.1,453.5,212.1,453.7,212.1,454.5z M211.8,364.1L557.4,19.3H419.1L211.8,225.6V19.3L45.3,183v611.2h167.4l-1-204.4
					l204.4,204.4h141.2L211.8,453.3V364.1z"/>
				<line class="st0" x1="210.9" y1="453.4" x2="211.1" y2="453.6"/>
				<path class="st0" d="M211.9,455c0-0.8,0-1-0.5-1v0.5h-45.8l-44.8-46.7l44.8-42.8h45.8v89.1C211.9,454.1,211.9,454.3,211.9,455z
					 M211.6,364.7L557.2,19.9H418.9L211.6,226.2V19.9L45.1,183.5v611.2h167.4l-1-204.4L416,794.7h141.2L211.6,453.8V364.7z"/>
				<line class="st0" x1="150.3" y1="482.2" x2="150.5" y2="482.4"/>
			</g>
			<g>
				<path class="st0" d="M212.1,455c0-0.8,0-1-0.5-1v0.5h-45.8L121,407.8l44.8-42.8h45.8v89.1C212.1,454.1,212.1,454.3,212.1,455z
					 M211.8,364.7L557.4,19.9H419.1L211.8,226.2V19.9L45.3,183.5v611.2h167.4l-1-204.4l204.4,204.4h141.2L211.8,453.8V364.7z"/>
				<line class="st0" x1="210.9" y1="454" x2="211.1" y2="454.1"/>
			</g>
			<polyline class="st0" points="211.6,364.4 169.4,407.3 211.6,454.1 			"/>
		</g>
		<g>
			<g>
				<path class="st0" d="M211.8,454.7c0-0.8,0-1-0.5-1v0.5h-45.8l-44.8-46.7l44.8-42.8h45.8v89.1C211.8,453.8,211.8,454,211.8,454.7
					z M211.5,364.4L557.1,19.6H418.8L211.5,225.9V19.6L45,183.2v611.2h167.4l-1-204.4l204.4,204.4h141.2L211.5,453.6V364.4z"/>
				<line class="st0" x1="210.6" y1="453.7" x2="210.8" y2="453.9"/>
				<path class="st0" d="M211.6,455.3c0-0.8,0-1-0.5-1v0.5h-45.8l-44.8-46.7l44.8-42.8h45.8v89.1
					C211.6,454.4,211.6,454.5,211.6,455.3z M211.3,365L556.9,20.2H418.7L211.3,226.5V20.2L44.8,183.8V795h167.4l-1-204.4L415.7,795
					h141.2L211.3,454.1V365z"/>
				<line class="st0" x1="150.1" y1="482.5" x2="150.3" y2="482.7"/>
			</g>
			<g>
				<path class="st0" d="M211.8,455.3c0-0.8,0-1-0.5-1v0.5h-45.8l-44.8-46.7l44.8-42.8h45.8v89.1
					C211.8,454.4,211.8,454.5,211.8,455.3z M211.5,365L557.1,20.2H418.8L211.5,226.5V20.2L45,183.8V795h167.4l-1-204.4L415.9,795
					h141.2L211.5,454.1V365z"/>
				<line class="st0" x1="210.6" y1="454.3" x2="210.8" y2="454.4"/>
			</g>
			<polyline class="st0" points="211.3,364.7 169.1,407.6 211.3,454.4 			"/>
		</g>
		<g>
			<g>
				<path class="st0" d="M211.5,455c0-0.8,0-1-0.5-1v0.5h-45.8l-44.8-46.7l44.8-42.8H211V454C211.5,454,211.5,454.2,211.5,455z
					 M211.2,364.7L556.8,19.9H418.6L211.2,226.2V19.9L44.8,183.5v611.2h167.4l-1-204.4l204.4,204.4h141.2L211.2,453.9V364.7z"/>
				<line class="st0" x1="210.3" y1="453.9" x2="210.5" y2="454.1"/>
				<path class="st0" d="M211.3,455.6c0-0.8,0-1-0.5-1v0.5h-45.8l-44.8-46.7l44.8-42.8h45.8v89.1
					C211.3,454.6,211.3,454.8,211.3,455.6z M211,365.3L556.6,20.5H418.4L211,226.7V20.5L44.6,184.1v611.2H212l-1-204.4l204.4,204.4
					h141.2L211,454.3V365.3z"/>
				<line class="st0" x1="149.8" y1="482.8" x2="150" y2="483"/>
			</g>
			<g>
				<path class="st0" d="M211.5,455.6c0-0.8,0-1-0.5-1v0.5h-45.8l-44.8-46.7l44.8-42.8H211v89.1
					C211.5,454.6,211.5,454.8,211.5,455.6z M211.2,365.3L556.8,20.5H418.6L211.2,226.7V20.5L44.8,184.1v611.2h167.4l-1-204.4
					l204.4,204.4h141.2L211.2,454.3V365.3z"/>
				<line class="st0" x1="210.3" y1="454.5" x2="210.5" y2="454.6"/>
			</g>
			<polyline class="st0" points="211,365 168.8,407.9 211,454.6 			"/>
		</g>
		<g>
			<g>
				<path class="st0" d="M211.2,455.3c0-0.8,0-1-0.5-1v0.5H165l-44.8-46.7l44.8-42.8h45.8v89.1C211.2,454.3,211.2,454.5,211.2,455.3
					z M211,365L556.5,20.2H418.3L211,226.4V20.2L44.5,183.8V795h167.4l-1-204.4L415.4,795h141.2L211,454.1V365z"/>
				<line class="st0" x1="210.1" y1="454.2" x2="210.3" y2="454.4"/>
				<path class="st0" d="M211.1,455.9c0-0.8,0-1-0.5-1v0.5h-45.8L120,408.7l44.8-42.8h45.8v89.1
					C211.1,454.9,211.1,455.1,211.1,455.9z M210.8,365.5L556.3,20.7H418.1L210.8,227V20.7L44.3,184.4v611.2h167.4l-1-204.4
					l204.4,204.4h141.2L210.8,454.6V365.5z"/>
				<line class="st0" x1="149.5" y1="483" x2="149.7" y2="483.2"/>
			</g>
			<g>
				<path class="st0" d="M211.2,455.9c0-0.8,0-1-0.5-1v0.5H165l-44.8-46.7l44.8-42.8h45.8v89.1C211.2,454.9,211.2,455.1,211.2,455.9
					z M211,365.5L556.5,20.7H418.3L211,227V20.7L44.5,184.4v611.2h167.4l-1-204.4l204.4,204.4h141.2L211,454.6V365.5z"/>
				<line class="st0" x1="210.1" y1="454.8" x2="210.3" y2="454.9"/>
			</g>
			<polyline class="st0" points="210.8,365.3 168.6,408.1 210.8,454.9 			"/>
		</g>
		<g>
			<g>
				<path class="st0" d="M211,455.6c0-0.8,0-1-0.5-1v0.5h-45.8L120,408.4l44.8-42.8h45.8v89.1C211,454.6,211,454.8,211,455.6z
					 M210.7,365.2L556.3,20.4H418L210.7,226.7V20.4L44.2,184.1v611.2h167.4l-1-204.4l204.4,204.4h141.2L210.7,454.4V365.2z"/>
				<line class="st0" x1="209.8" y1="454.5" x2="210" y2="454.7"/>
				<path class="st0" d="M210.8,456.2c0-0.8,0-1-0.5-1v0.5h-45.8l-44.8-46.7l44.8-42.8h45.8v89.1
					C210.8,455.2,210.8,455.4,210.8,456.2z M210.5,365.8L556.1,21H417.8L210.5,227.3V21L44,184.7v611.2h167.4l-1-204.4l204.4,204.4
					h141.2L210.5,454.9V365.8z"/>
				<line class="st0" x1="149.3" y1="483.3" x2="149.4" y2="483.5"/>
			</g>
			<g>
				<path class="st0" d="M211,456.2c0-0.8,0-1-0.5-1v0.5h-45.8L120,408.9l44.8-42.8h45.8v89.1C211,455.2,211,455.4,211,456.2z
					 M210.7,365.8L556.3,21H418L210.7,227.3V21L44.2,184.7v611.2h167.4l-1-204.4l204.4,204.4h141.2L210.7,454.9V365.8z"/>
				<line class="st0" x1="209.8" y1="455.1" x2="210" y2="455.2"/>
			</g>
			<polyline class="st0" points="210.5,365.5 168.3,408.4 210.5,455.2 			"/>
		</g>
		<g>
			<g>
				<path class="st0" d="M210.7,455.9c0-0.8,0-1-0.5-1v0.5h-45.8l-44.8-46.7l44.8-42.8h45.8v89.1
					C210.7,454.9,210.7,455.1,210.7,455.9z M210.4,365.5L556,20.7H417.8L210.4,227V20.7L43.9,184.4v611.2h167.4l-1-204.4
					l204.4,204.4H556L210.4,454.7V365.5z"/>
				<line class="st0" x1="209.5" y1="454.8" x2="209.7" y2="455"/>
				<path class="st0" d="M210.5,456.4c0-0.8,0-1-0.5-1v0.5h-45.8l-44.8-46.7l44.8-42.8H210v89.1
					C210.5,455.5,210.5,455.7,210.5,456.4z M210.2,366.1L555.8,21.3H417.6L210.2,227.6V21.3L43.7,184.9v611.2h167.4l-1-204.4
					l204.4,204.4h141.2L210.2,455.2V366.1z"/>
				<line class="st0" x1="149" y1="483.6" x2="149.2" y2="483.8"/>
			</g>
			<g>
				<path class="st0" d="M210.7,456.4c0-0.8,0-1-0.5-1v0.5h-45.8l-44.8-46.7l44.8-42.8h45.8v89.1
					C210.7,455.5,210.7,455.7,210.7,456.4z M210.4,366.1L556,21.3H417.8L210.4,227.6V21.3L43.9,184.9v611.2h167.4l-1-204.4
					l204.4,204.4H556L210.4,455.2V366.1z"/>
				<line class="st0" x1="209.5" y1="455.4" x2="209.7" y2="455.5"/>
			</g>
			<polyline class="st0" points="210.2,365.8 168,408.7 210.2,455.5 			"/>
		</g>
		<g>
			<g>
				<path class="st0" d="M210.4,456.1c0-0.8,0-1-0.5-1v0.5h-45.8l-44.8-46.7l44.8-42.8h45.8v89.1
					C210.4,455.2,210.4,455.4,210.4,456.1z M210.1,365.8L555.7,21H417.5L210.1,227.3V21L43.7,184.6v611.2h167.4l-1-204.4
					l204.4,204.4h141.2L210.1,455V365.8z"/>
				<line class="st0" x1="209.3" y1="455.1" x2="209.5" y2="455.3"/>
				<path class="st0" d="M210.2,456.7c0-0.8,0-1-0.5-1v0.5H164l-44.8-46.7l44.8-42.8h45.8v89.1C210.2,455.7,210.2,455.9,210.2,456.7
					z M209.9,366.4L555.5,21.6H417.3L209.9,227.9V21.6L43.5,185.2v611.2h167.4l-1-204.4l204.4,204.4h141.2L209.9,455.5V366.4z"/>
				<line class="st0" x1="148.7" y1="483.9" x2="148.9" y2="484.1"/>
			</g>
			<g>
				<path class="st0" d="M210.4,456.7c0-0.8,0-1-0.5-1v0.5h-45.8l-44.8-46.7l44.8-42.8h45.8v89.1
					C210.4,455.7,210.4,455.9,210.4,456.7z M210.1,366.4L555.7,21.6H417.5L210.1,227.9V21.6L43.7,185.2v611.2h167.4l-1-204.4
					l204.4,204.4h141.2L210.1,455.5V366.4z"/>
				<line class="st0" x1="209.3" y1="455.7" x2="209.5" y2="455.7"/>
			</g>
			<polyline class="st0" points="209.9,366.1 167.7,409 209.9,455.7 			"/>
		</g>
		<g>
			<g>
				<path class="st0" d="M210.2,456.4c0-0.8,0-1-0.5-1v0.5h-45.8l-44.8-46.7l44.8-42.8h45.8v89.1
					C210.2,455.4,210.2,455.6,210.2,456.4z M209.9,366.1L555.5,21.3H417.2L209.9,227.6V21.3L43.4,184.9v611.2h167.4l-1-204.4
					l204.4,204.4h141.2L209.9,455.2V366.1z"/>
				<line class="st0" x1="209" y1="455.3" x2="209.2" y2="455.5"/>
				<path class="st0" d="M210,457c0-0.8,0-1-0.5-1v0.5h-45.8l-44.8-46.7l44.8-42.8h45.8V456C210,456,210,456.2,210,457z
					 M209.7,366.7L555.3,21.9H417L209.7,228.1V21.9L43.2,185.5v611.2h167.4l-1-204.4l204.4,204.4h141.2L209.7,455.7V366.7z"/>
				<line class="st0" x1="148.4" y1="484.2" x2="148.6" y2="484.4"/>
			</g>
			<g>
				<path class="st0" d="M210.2,457c0-0.8,0-1-0.5-1v0.5h-45.8l-44.8-46.7l44.8-42.8h45.8V456C210.2,456,210.2,456.2,210.2,457z
					 M209.9,366.7L555.5,21.9H417.2L209.9,228.1V21.9L43.4,185.5v611.2h167.4l-1-204.4l204.4,204.4h141.2L209.9,455.7V366.7z"/>
				<line class="st0" x1="209" y1="455.9" x2="209.2" y2="456"/>
			</g>
			<polyline class="st0" points="209.7,366.4 167.5,409.3 209.7,456 			"/>
		</g>
		<g>
			<g>
				<path class="st0" d="M209.9,456.7c0-0.8,0-1-0.5-1v0.5h-45.8l-44.8-46.7l44.8-42.8h45.8v89.1
					C209.9,455.7,209.9,455.9,209.9,456.7z M209.6,366.4L555.2,21.5H416.9L209.6,227.8V21.5L43.1,185.2v611.2h167.4l-1-204.4
					L414,796.4h141.2L209.6,455.5V366.4z"/>
				<line class="st0" x1="208.7" y1="455.6" x2="208.9" y2="455.8"/>
				<path class="st0" d="M209.7,457.3c0-0.8,0-1-0.5-1v0.5h-45.8l-44.8-46.7l44.8-42.8h45.8v89.1
					C209.7,456.3,209.7,456.5,209.7,457.3z M209.4,366.9L555,22.1H416.7L209.4,228.4V22.1L42.9,185.8v611.2h167.4l-1-204.4
					l204.4,204.4H555L209.4,456V366.9z"/>
				<line class="st0" x1="148.2" y1="484.4" x2="148.4" y2="484.6"/>
			</g>
			<g>
				<path class="st0" d="M209.9,457.3c0-0.8,0-1-0.5-1v0.5h-45.8l-44.8-46.7l44.8-42.8h45.8v89.1
					C209.9,456.3,209.9,456.5,209.9,457.3z M209.6,366.9L555.2,22.1H416.9L209.6,228.4V22.1L43.1,185.8v611.2h167.4l-1-204.4
					L414,796.9h141.2L209.6,456V366.9z"/>
				<line class="st0" x1="208.7" y1="456.2" x2="208.9" y2="456.3"/>
			</g>
			<polyline class="st0" points="209.4,366.6 167.2,409.5 209.4,456.3 			"/>
		</g>
		<g>
			<g>
				<path class="st0" d="M209.6,457c0-0.8,0-1-0.5-1v0.5h-45.8l-44.8-46.7l44.8-42.8h45.8V456C209.6,456,209.6,456.2,209.6,457z
					 M209.3,366.6L554.9,21.8H416.7L209.3,228.1V21.8L42.9,185.5v611.2h167.4l-1-204.4l204.4,204.4h141.2L209.3,455.8V366.6z"/>
				<line class="st0" x1="208.4" y1="455.9" x2="208.6" y2="456.1"/>
				<path class="st0" d="M209.4,457.6c0-0.8,0-1-0.5-1v0.5h-45.8l-44.8-46.7l44.8-42.8h45.8v89.1
					C209.4,456.6,209.4,456.8,209.4,457.6z M209.1,367.2L554.7,22.4H416.5L209.1,228.7V22.4L42.7,186.1v611.2h167.4l-1-204.4
					l204.4,204.4h141.2L209.1,456.3V367.2z"/>
				<line class="st0" x1="147.9" y1="484.7" x2="148.1" y2="484.9"/>
			</g>
			<g>
				<path class="st0" d="M209.6,457.6c0-0.8,0-1-0.5-1v0.5h-45.8l-44.8-46.7l44.8-42.8h45.8v89.1
					C209.6,456.6,209.6,456.8,209.6,457.6z M209.3,367.2L554.9,22.4H416.7L209.3,228.7V22.4L42.9,186.1v611.2h167.4l-1-204.4
					l204.4,204.4h141.2L209.3,456.3V367.2z"/>
				<line class="st0" x1="208.4" y1="456.5" x2="208.6" y2="456.6"/>
			</g>
			<polyline class="st0" points="209.1,366.9 166.9,409.8 209.1,456.6 			"/>
		</g>
		<g>
			<g>
				<path class="st0" d="M209.3,457.3c0-0.8,0-1-0.5-1v0.5h-45.8L118.3,410l44.8-42.8h45.8v89.1
					C209.3,456.3,209.3,456.5,209.3,457.3z M209,366.9L554.6,22.1H416.4L209,228.4V22.1L42.6,185.8V797H210l-1-204.4L413.5,797
					h141.2L209,456.1V366.9z"/>
				<line class="st0" x1="208.2" y1="456.2" x2="208.4" y2="456.4"/>
				<path class="st0" d="M209.1,457.8c0-0.8,0-1-0.5-1v0.5h-45.8l-44.8-46.7l44.8-42.8h45.8v89.1
					C209.1,456.9,209.1,457.1,209.1,457.8z M208.9,367.5L554.4,22.7H416.2L208.9,229V22.7L42.4,186.3v611.2h167.4l-1-204.4
					l204.4,204.4h141.2L208.9,456.6V367.5z"/>
				<line class="st0" x1="147.6" y1="485" x2="147.8" y2="485.2"/>
			</g>
			<g>
				<path class="st0" d="M209.3,457.8c0-0.8,0-1-0.5-1v0.5h-45.8l-44.8-46.7l44.8-42.8h45.8v89.1
					C209.3,456.9,209.3,457.1,209.3,457.8z M209,367.5L554.6,22.7H416.4L209,229V22.7L42.6,186.3v611.2H210l-1-204.4l204.4,204.4
					h141.2L209,456.6V367.5z"/>
				<line class="st0" x1="208.2" y1="456.8" x2="208.4" y2="456.9"/>
			</g>
			<polyline class="st0" points="208.9,367.2 166.7,410.1 208.9,456.9 			"/>
		</g>
		<g>
			<g>
				<path class="st0" d="M209.1,457.5c0-0.8,0-1-0.5-1v0.5h-45.8L118,410.3l44.8-42.8h45.8v89.1
					C209.1,456.6,209.1,456.8,209.1,457.5z M208.8,367.2L554.4,22.4H416.1L208.8,228.7V22.4L42.3,186v611.2h167.4l-1-204.4
					l204.4,204.4h141.2L208.8,456.4V367.2z"/>
				<line class="st0" x1="207.9" y1="456.5" x2="208.1" y2="456.7"/>
				<path class="st0" d="M208.9,458.1c0-0.8,0-1-0.5-1v0.5h-45.8l-44.8-46.7l44.8-42.8h45.8v89.1
					C208.9,457.1,208.9,457.3,208.9,458.1z M208.6,367.8L554.2,23H415.9L208.6,229.3V23L42.1,186.6v611.2h167.4l-1-204.4L413,797.8
					h141.2L208.6,456.9V367.8z"/>
				<line class="st0" x1="147.3" y1="485.3" x2="147.5" y2="485.5"/>
			</g>
			<g>
				<path class="st0" d="M209.1,458.1c0-0.8,0-1-0.5-1v0.5h-45.8L118,410.9l44.8-42.8h45.8v89.1
					C209.1,457.1,209.1,457.3,209.1,458.1z M208.8,367.8L554.4,23H416.1L208.8,229.3V23L42.3,186.6v611.2h167.4l-1-204.4
					l204.4,204.4h141.2L208.8,456.9V367.8z"/>
				<line class="st0" x1="207.9" y1="457" x2="208.1" y2="457.1"/>
			</g>
			<polyline class="st0" points="208.6,367.5 166.4,410.4 208.6,457.1 			"/>
		</g>
		<g>
			<g>
				<path class="st0" d="M208.8,457.8c0-0.8,0-1-0.5-1v0.5h-45.8l-44.8-46.7l44.8-42.8h45.8v89.1C208.8,456.8,208.8,457,208.8,457.8
					z M208.5,367.5L554.1,22.7H415.9L208.5,228.9V22.7L42,186.3v611.2h167.4l-1-204.4l204.4,204.4h141.2L208.5,456.6V367.5z"/>
				<line class="st0" x1="207.6" y1="456.7" x2="207.8" y2="456.9"/>
				<path class="st0" d="M208.6,458.4c0-0.8,0-1-0.5-1v0.5h-45.8l-44.8-46.7l44.8-42.8h45.8v89.1
					C208.6,457.4,208.6,457.6,208.6,458.4z M208.3,368.1L553.9,23.3H415.7L208.3,229.5V23.3L41.8,186.9V798h167.4l-1-204.4
					L412.7,798h141.2L208.3,457.1V368.1z"/>
				<line class="st0" x1="147.1" y1="485.6" x2="147.3" y2="485.8"/>
			</g>
			<g>
				<path class="st0" d="M208.8,458.4c0-0.8,0-1-0.5-1v0.5h-45.8l-44.8-46.7l44.8-42.8h45.8v89.1
					C208.8,457.4,208.8,457.6,208.8,458.4z M208.5,368.1L554.1,23.3H415.9L208.5,229.5V23.3L42,186.9V798h167.4l-1-204.4L412.9,798
					h141.2L208.5,457.1V368.1z"/>
				<line class="st0" x1="207.6" y1="457.3" x2="207.8" y2="457.4"/>
			</g>
			<polyline class="st0" points="208.3,367.8 166.1,410.6 208.3,457.4 			"/>
		</g>
		<g>
			<g>
				<path class="st0" d="M208.5,458.1c0-0.8,0-1-0.5-1v0.5h-45.8l-44.8-46.7l44.8-42.8H208v89.1
					C208.5,457.1,208.5,457.3,208.5,458.1z M208.2,367.8L553.8,22.9H415.6L208.2,229.2V22.9L41.8,186.6v611.2h167.4l-1-204.4
					l204.4,204.4h141.2L208.2,456.9V367.8z"/>
				<line class="st0" x1="207.4" y1="457" x2="207.5" y2="457.2"/>
				<path class="st0" d="M208.3,458.7c0-0.8,0-1-0.5-1v0.5h-45.8l-44.8-46.7l44.8-42.8h45.8v89.1
					C208.3,457.7,208.3,457.9,208.3,458.7z M208,368.3L553.6,23.5H415.4L208,229.8V23.5L41.6,187.2v611.2H209l-1-204.4l204.4,204.4
					h141.2L208,457.4V368.3z"/>
				<line class="st0" x1="146.8" y1="485.8" x2="147" y2="486"/>
			</g>
			<g>
				<path class="st0" d="M208.5,458.7c0-0.8,0-1-0.5-1v0.5h-45.8l-44.8-46.7l44.8-42.8H208v89.1
					C208.5,457.7,208.5,457.9,208.5,458.7z M208.2,368.3L553.8,23.5H415.6L208.2,229.8V23.5L41.8,187.2v611.2h167.4l-1-204.4
					l204.4,204.4h141.2L208.2,457.4V368.3z"/>
				<line class="st0" x1="207.4" y1="457.6" x2="207.5" y2="457.7"/>
			</g>
			<polyline class="st0" points="208,368 165.8,410.9 208,457.7 			"/>
		</g>
		<g>
			<g>
				<path class="st0" d="M208.3,458.4c0-0.8,0-1-0.5-1v0.5H162l-44.8-46.7l44.8-42.8h45.8v89.1C208.3,457.4,208.3,457.6,208.3,458.4
					z M208,368L553.5,23.2H415.3L208,229.5V23.2L41.5,186.9v611.2h167.4l-1-204.4l204.4,204.4h141.2L208,457.2V368z"/>
				<line class="st0" x1="207.1" y1="457.3" x2="207.3" y2="457.5"/>
				<path class="st0" d="M208.1,459c0-0.8,0-1-0.5-1v0.5h-45.8L117,411.7l44.8-42.8h45.8V458C208.1,458,208.1,458.2,208.1,459z
					 M207.8,368.6L553.3,23.8H415.1L207.8,230.1V23.8L41.3,187.5v611.2h167.4l-1-204.4l204.4,204.4h141.2L207.8,457.7V368.6z"/>
				<line class="st0" x1="146.5" y1="486.1" x2="146.7" y2="486.3"/>
			</g>
			<g>
				<path class="st0" d="M208.3,459c0-0.8,0-1-0.5-1v0.5H162l-44.8-46.7l44.8-42.8h45.8V458C208.3,458,208.3,458.2,208.3,459z
					 M208,368.6L553.5,23.8H415.3L208,230.1V23.8L41.5,187.5v611.2h167.4l-1-204.4l204.4,204.4h141.2L208,457.7V368.6z"/>
				<line class="st0" x1="207.1" y1="457.9" x2="207.3" y2="458"/>
			</g>
			<polyline class="st0" points="207.8,368.3 165.6,411.2 207.8,458 			"/>
		</g>
		<g>
			<g>
				<path class="st0" d="M208,458.7c0-0.8,0-1-0.5-1v0.5h-45.8L117,411.4l44.8-42.8h45.8v89.1C208,457.7,208,457.9,208,458.7z
					 M207.7,368.3L553.3,23.5H415L207.7,229.8V23.5L41.2,187.1v611.2h167.4l-1-204.4l204.4,204.4h141.2L207.7,457.5V368.3z"/>
				<line class="st0" x1="206.8" y1="457.6" x2="207" y2="457.8"/>
				<path class="st0" d="M207.8,459.2c0-0.8,0-1-0.5-1v0.5h-45.8L116.8,412l44.8-42.8h45.8v89.1
					C207.8,458.3,207.8,458.5,207.8,459.2z M207.5,368.9L553.1,24.1H414.8L207.5,230.4V24.1L41,187.7v611.2h167.4l-1-204.4
					l204.4,204.4h141.2L207.5,458V368.9z"/>
				<line class="st0" x1="146.3" y1="486.4" x2="146.5" y2="486.6"/>
			</g>
			<g>
				<path class="st0" d="M208,459.2c0-0.8,0-1-0.5-1v0.5h-45.8L117,412l44.8-42.8h45.8v89.1C208,458.3,208,458.5,208,459.2z
					 M207.7,368.9L553.3,24.1H415L207.7,230.4V24.1L41.2,187.7v611.2h167.4l-1-204.4l204.4,204.4h141.2L207.7,458V368.9z"/>
				<line class="st0" x1="206.8" y1="458.2" x2="207" y2="458.3"/>
			</g>
			<polyline class="st0" points="207.5,368.6 165.3,411.5 207.5,458.3 			"/>
		</g>
		<g>
			<g>
				<path class="st0" d="M207.7,458.9c0-0.8,0-1-0.5-1v0.5h-45.8l-44.8-46.7l44.8-42.8h45.8V458C207.7,458,207.7,458.2,207.7,458.9z
					 M207.4,368.6L553,23.8H414.8L207.4,230.1V23.8L40.9,187.4v611.2h167.4l-1-204.4l204.4,204.4H553L207.4,457.8V368.6z"/>
				<line class="st0" x1="206.5" y1="457.9" x2="206.7" y2="458.1"/>
				<path class="st0" d="M207.5,459.5c0-0.8,0-1-0.5-1v0.5h-45.8l-44.8-46.7l44.8-42.8H207v89.1
					C207.5,458.5,207.5,458.7,207.5,459.5z M207.2,369.2L552.8,24.4H414.6L207.2,230.6V24.4L40.8,188v611.2h167.4l-1-204.4
					l204.4,204.4h141.2L207.2,458.2V369.2z"/>
				<line class="st0" x1="146" y1="486.7" x2="146.2" y2="486.9"/>
			</g>
			<g>
				<path class="st0" d="M207.7,459.5c0-0.8,0-1-0.5-1v0.5h-45.8l-44.8-46.7l44.8-42.8h45.8v89.1
					C207.7,458.5,207.7,458.7,207.7,459.5z M207.4,369.2L553,24.4H414.8L207.4,230.6V24.4L40.9,188v611.2h167.4l-1-204.4
					l204.4,204.4H553L207.4,458.2V369.2z"/>
				<line class="st0" x1="206.5" y1="458.4" x2="206.7" y2="458.5"/>
			</g>
			<polyline class="st0" points="207.2,368.9 165,411.8 207.2,458.5 			"/>
		</g>
		<g>
			<g>
				<path class="st0" d="M207.4,459.2c0-0.8,0-1-0.5-1v0.5h-45.8L116.4,412l44.8-42.8h45.8v89.1
					C207.4,458.2,207.4,458.4,207.4,459.2z M207.1,368.9L552.7,24.1H414.5L207.1,230.3V24.1L40.7,187.7V799h167.4l-1-204.4
					L411.6,799h141.2L207.1,458V368.9z"/>
				<line class="st0" x1="206.3" y1="458.1" x2="206.5" y2="458.3"/>
				<path class="st0" d="M207.2,459.8c0-0.8,0-1-0.5-1v0.5H161l-44.8-46.7l44.8-42.8h45.8v89.1C207.2,458.8,207.2,459,207.2,459.8z
					 M206.9,369.5L552.5,24.6H414.3L206.9,230.9V24.6L40.5,188.3v611.2h167.4l-1-204.4l204.4,204.4h141.2L206.9,458.5V369.5z"/>
				<line class="st0" x1="145.7" y1="487" x2="145.9" y2="487.1"/>
			</g>
			<g>
				<path class="st0" d="M207.4,459.8c0-0.8,0-1-0.5-1v0.5h-45.8l-44.8-46.7l44.8-42.8h45.8v89.1C207.4,458.8,207.4,459,207.4,459.8
					z M207.1,369.5L552.7,24.6H414.5L207.1,230.9V24.6L40.7,188.3v611.2h167.4l-1-204.4l204.4,204.4h141.2L207.1,458.5V369.5z"/>
				<line class="st0" x1="206.3" y1="458.7" x2="206.5" y2="458.8"/>
			</g>
			<polyline class="st0" points="206.9,369.2 164.8,412 206.9,458.8 			"/>
		</g>
		<g>
			<g>
				<path class="st0" d="M207.2,459.5c0-0.8,0-1-0.5-1v0.5h-45.8l-44.8-46.7l44.8-42.8h45.8v89.1
					C207.2,458.5,207.2,458.7,207.2,459.5z M206.9,369.1L552.5,24.3H414.2L206.9,230.6V24.3L40.4,188v611.2h167.4l-1-204.4
					l204.4,204.4h141.2L206.9,458.3V369.1z"/>
				<line class="st0" x1="206" y1="458.4" x2="206.2" y2="458.6"/>
				<path class="st0" d="M207,460.1c0-0.8,0-1-0.5-1v0.5h-45.8l-44.8-46.7l44.8-42.8h45.8v89.1C207,459.1,207,459.3,207,460.1z
					 M206.7,369.7L552.3,24.9H414L206.7,231.2V24.9L40.2,188.6v611.2h167.4l-1-204.4l204.4,204.4h141.2L206.7,458.8V369.7z"/>
				<line class="st0" x1="145.4" y1="487.2" x2="145.6" y2="487.4"/>
			</g>
			<g>
				<path class="st0" d="M207.2,460.1c0-0.8,0-1-0.5-1v0.5h-45.8l-44.8-46.7l44.8-42.8h45.8v89.1
					C207.2,459.1,207.2,459.3,207.2,460.1z M206.9,369.7L552.5,24.9H414.2L206.9,231.2V24.9L40.4,188.6v611.2h167.4l-1-204.4
					l204.4,204.4h141.2L206.9,458.8V369.7z"/>
				<line class="st0" x1="206" y1="459" x2="206.2" y2="459.1"/>
			</g>
			<polyline class="st0" points="206.7,369.4 164.5,412.3 206.7,459.1 			"/>
		</g>
		<g>
			<g id="Warstwa_1_4_">
				<path class="st0" d="M206.9,459.8c0-0.8,0-1-0.5-1v0.5h-45.8l-44.8-46.7l44.8-42.8h45.8v89.1C206.9,458.8,206.9,459,206.9,459.8
					z M206.6,369.4L552.2,24.6H413.9L206.6,230.9V24.6L40.1,188.3v611.2h167.4l-1-204.4L411,799.5h141.2L206.6,458.6V369.4z"/>
				<line class="st0" x1="205.7" y1="458.7" x2="205.9" y2="458.9"/>
				<path class="st0" d="M206.7,460.4c0-0.8,0-1-0.5-1v0.5h-45.8l-44.8-46.7l44.8-42.8h45.8v89.1
					C206.7,459.4,206.7,459.6,206.7,460.4z M206.4,370L552,25.2H413.8L206.4,231.5V25.2L39.9,188.8V800h167.4l-1-204.4L410.8,800
					H552L206.4,459.1V370z"/>
				<line class="st0" x1="145.2" y1="487.5" x2="145.4" y2="487.7"/>
			</g>
			<g id="Warstwa_2_4_">
				<path class="st0" d="M206.9,460.4c0-0.8,0-1-0.5-1v0.5h-45.8l-44.8-46.7l44.8-42.8h45.8v89.1
					C206.9,459.4,206.9,459.6,206.9,460.4z M206.6,370L552.2,25.2H413.9L206.6,231.5V25.2L40.1,188.8V800h167.4l-1-204.4L411,800
					h141.2L206.6,459.1V370z"/>
				<line class="st0" x1="205.7" y1="459.3" x2="205.9" y2="459.4"/>
			</g>
			<polyline class="st0" points="206.4,369.7 164.2,412.6 206.4,459.4 			"/>
		</g>
	</g>
</g>
<g id="Warstwa_1">
	<g id="Warstwa_1_1_">
		<path class="st1" d="M228.7,346.8L574.2,2H436L228.7,208.3V2L62.2,165.6v611.2h167.4l-1-204.4l204.4,204.4h141.2L228.7,436V346.8z
			 M228.9,437.1c0-0.8,0-1-0.5-1v0.5h-45.8l-44.8-46.7l44.8-42.8h45.8v89.1C228.9,436.2,228.9,436.4,228.9,437.1z"/>
		<line class="st1" x1="227.8" y1="436.1" x2="228" y2="436.3"/>
		<path class="st1" d="M228.5,347.4L574,2.6H435.8L228.5,208.9V2.6L62,166.2v611.2h167.4l-1-204.4l204.4,204.4H574L228.5,436.5
			V347.4z M228.7,437.7c0-0.8,0-1-0.5-1v0.5h-45.8l-44.8-46.7l44.8-42.8h45.8v89.1C228.7,436.8,228.7,437,228.7,437.7z"/>
		<line class="st1" x1="167.2" y1="464.9" x2="167.4" y2="465.1"/>
	</g>
	<g id="Warstwa_2_1_">
		<path class="st2" d="M228.7,347.4L574.2,2.6H436L228.7,208.9V2.6L62.2,166.2v611.2h167.4l-1-204.4l204.4,204.4h141.2L228.7,436.5
			V347.4z M228.9,437.7c0-0.8,0-1-0.5-1v0.5h-45.8l-44.8-46.7l44.8-42.8h45.8v89.1C228.9,436.8,228.9,437,228.9,437.7z"/>
		<line class="st2" x1="227.8" y1="436.7" x2="228" y2="436.8"/>
	</g>
	<polyline class="st2" points="228.5,347.1 186.3,390 228.5,436.8 	"/>
</g>
</svg>
