<?xml version="1.0" encoding="utf-8"?>
<!-- Generator: Adobe Illustrator 24.2.0, SVG Export Plug-In . SVG Version: 6.00 Build 0)  -->
<svg version="1.1" xmlns="http://www.w3.org/2000/svg" xmlns:xlink="http://www.w3.org/1999/xlink" x="0px" y="0px"
	 viewBox="0 0 600 800" style="enable-background:new 0 0 600 800;" xml:space="preserve">
<style type="text/css">
	.st0{fill:none;stroke:#000066;stroke-miterlimit:10;}
</style>
<g id="Warstwa_1">
	<path class="st0" d="M225.7,356.2L580.7,2l-142,0l-213,211.9V2l-171,168.1V798h172l-1-210l210,210h145l-355-350.2L225.7,356.2
		L225.7,356.2z M226,449c0-0.8,0-1-0.5-1v0.5h-47l-46-48l46-44h47V448C226,448,226,448.2,226,449z"/>
	<line class="st0" x1="224.8" y1="447.9" x2="225" y2="448.1"/>
	<path class="st0" d="M225.5,356.8l355-354.2l-142,0l-213,211.9V2.6l-171,168.1v627.8h172l-1-210l210,210h145l-355-350.2
		L225.5,356.8L225.5,356.8z M225.8,449.6c0-0.8,0-1-0.5-1v0.5h-47l-46-48l46-44h47v91.5C225.8,448.6,225.8,448.8,225.8,449.6z"/>
	<line class="st0" x1="162.6" y1="477.5" x2="162.8" y2="477.7"/>
</g>
<g id="Warstwa_2">
	<path class="st0" d="M225.7,356.8l355-354.2l-142,0l-213,211.9V2.6l-171,168.1v627.8h172l-1-210l210,210h145l-355-350.2
		L225.7,356.8L225.7,356.8z M226,449.6c0-0.8,0-1-0.5-1v0.5h-47l-46-48l46-44h47v91.5C226,448.6,226,448.8,226,449.6z"/>
	<line class="st0" x1="224.8" y1="448.5" x2="225" y2="448.6"/>
</g>
</svg>
